<?xml version="1.0" encoding="utf-8"?>
<!-- Generator: Adobe Illustrator 24.3.0, SVG Export Plug-In . SVG Version: 6.00 Build 0)  -->
<svg version="1.1" id="Livello_1" xmlns="http://www.w3.org/2000/svg" xmlns:xlink="http://www.w3.org/1999/xlink" x="0px" y="0px"
	 viewBox="0 0 800 800" style="enable-background:new 0 0 800 800;" xml:space="preserve">
<style type="text/css">
	.st0{fill:#1F5E3D;}
	.st1{fill:#36A970;}
	.st2{fill:#47C480;}
	.st3{fill:#56E292;}
	.st4{fill:#545454;}
	.st5{fill:#616161;}
	.st6{fill:#BDBDBD;}
	.st7{fill:#757575;}
	.st8{fill:#E0E0E0;}
	.st9{fill:#424242;}
	.st10{fill:#F5F5F5;}
</style>
<path class="st0" d="M146.6,485.6L412.3,639l-19.5,33.8L127.1,519.5L146.6,485.6z"/>
<path class="st0" d="M418.9,336.3c0,0,156.6,69.8,44.9,231.3c0,0-42.1-9.6-86.9,21.4C320.6,628,314.2,712.2,210,712.2h441.2
	l-53.6-50.6c0,0,44.7-113,18.4-232.8c-30.6-139.4-148.6-173.1-148.6-173.1L418.9,336.3L418.9,336.3z"/>
<path class="st1" d="M447.3,336.3c0,0,156.6,69.8,44.9,231.3c0,0-42.1-9.6-86.9,21.4C349,628,342.5,712.2,238.3,712.2h441.2
	L626,661.6c0,0,44.7-113,18.4-232.8c-30.6-139.4-148.6-173.1-148.6-173.1L447.3,336.3L447.3,336.3z"/>
<path class="st2" d="M156,469.5l185.9,107.3l-9.3,16.1L146.7,485.6L156,469.5z"/>
<path class="st0" d="M108.4,614l11.4-24.6c0,0,121.4,47.6,144.1,55.9l-10.3,22.6c-3.4,9.3-38.7,4.6-78.8-10.2
	C134.7,642.8,105,623.2,108.4,614L108.4,614z"/>
<path class="st3" d="M250.2,645.4c-14.5,0-38.7-5.6-63.2-14.8c-46.4-17.2-64.8-34.6-63.9-38.2c0.2-0.4,2.6-2,10.1-2
	c14.5,0,38.7,5.6,63.2,14.8c46.4,17.2,64.7,34.6,63.9,38.2C260.1,643.9,257.8,645.4,250.2,645.4z"/>
<path class="st2" d="M133.3,594.8c14,0,37.7,5.6,61.7,14.5c32.9,12.2,52.5,25.2,58.9,31.8c-1,0.1-2.2,0.2-3.7,0.2
	c-14,0-37.7-5.6-61.7-14.5c-32.9-12.2-52.5-25.2-58.9-31.8C130.6,594.8,131.8,594.8,133.3,594.8 M133.3,586.2
	c-7.8,0-12.9,1.6-14.1,4.8c-3.4,9.3,26.2,28.8,66.4,43.7c26.1,9.7,50.1,15,64.7,15c7.8,0,12.9-1.6,14.1-4.8
	c3.4-9.2-26.3-28.8-66.4-43.7C171.9,591.6,147.8,586.2,133.3,586.2L133.3,586.2z"/>
<path class="st0" d="M157.7,629.4c0,0-26.8,46.8,5.4,86.6c24.4,30.1,128.7,3.8,128.7,3.8s-95-6.1-97.2-70.4L157.7,629.4L157.7,629.4
	z"/>
<path class="st1" d="M728.3,775H71.7c-7.9,0-14.3-6.4-14.3-14.3c0-31.9,25.8-57.7,57.7-57.7h569.9c31.9,0,57.7,25.8,57.7,57.7
	C742.6,768.6,736.2,775,728.3,775L728.3,775L728.3,775z"/>
<path class="st4" d="M270.8,401.4l48.5,27.9l-48.6,65.2c0,0-8.9,2.6-21.6-4.3c-12.7-6.9-14.1-16.1-14.1-16.1L270.8,401.4z"/>
<path class="st1" d="M503.8,184l50.6-87.7c0,0-10.8-25.1-39.6-42.4s-51.9-10.2-51.9-10.2l-50.5,87.7c-0.1,0.1-0.2,0.1-0.2,0.2
	c-3.3,5.8,14.5,22.2,39.8,36.8c25.2,14.6,48.4,21.7,51.7,15.9C503.7,184.2,503.7,184.1,503.8,184L503.8,184z"/>
<path class="st5" d="M524.5,43.6c-52.9-31.5-70.6-15.2-74-7.2c-1.6,3.9-0.4,14.1,6.3,18.1l3.6-6.8c3.3-5.8,28.8-2.9,54.2,11.7
	c25.4,14.6,40.4,35.3,37.1,41.1c-0.3,0.6-3.1,5.2-3.1,5.2c3.7,3,15.4,1.3,18.2-2.4C572,96.4,579.9,76.6,524.5,43.6L524.5,43.6z"/>
<path class="st6" d="M251.4,336.9c17.4-30.2,66.3-34.8,109.2-10c42.9,24.8,63.5,69.3,46.1,99.5c-17.4,30.2-69.1,39.6-112,14.8
	C251.9,416.5,234,367.1,251.4,336.9L251.4,336.9z"/>
<path class="st7" d="M319.3,435.7c0,0,4.6-6.9,24.9-8.8c20.3-1.9,31,11.1,31,11.1l-11.8,71.6c0,0-6.8,6.3-21.2,5.9s-19.8-8-19.8-8
	L319.3,435.7L319.3,435.7z"/>
<path class="st7" d="M250,354.5c0,0,11.6-0.6,21.2,17.4c10.9,20.6-0.1,34.4-0.1,34.4l-64.4,22.9c0,0-8.9-2.7-15.8-15.3
	c-6.9-12.7-3.1-21.1-3.1-21.1L250,354.5z"/>
<path class="st8" d="M463.9,147.6c-40.6-22.9-66.2-28.3-78.3-29.3c-4.8-0.4-9.4,2-11.8,6.2L251.6,336.8c0,0,30.2,3.7,83,34.1
	c52.7,30.4,72.2,55.3,72.2,55.3l122.4-212.4c2.4-4.1,2.2-9.1-0.4-13.1C522,190.5,504.7,170.6,463.9,147.6L463.9,147.6z"/>
<circle class="st9" cx="458.9" cy="670.6" r="40.8"/>
<circle class="st6" cx="467.6" cy="675" r="25.9"/>
<path class="st10" d="M300.4,342.2c0,0,108.2-187.5,116.1-196.5c7.8-9,37.4,2.9,32.8,11.6c-4.6,8.7-112.2,200.6-112.2,200.6
	C315.6,343.9,300.4,342.2,300.4,342.2z"/>
<path class="st2" d="M525.7,582.2c8.9-13.6,30.6-54.1,25.6-118.8c-7.8-101-89.2-133.2-89.2-133.2l-7.2,12.6
	c66.2,43.6,107.3,119.2,34.2,224.9c0,0-42.1-9.6-86.9,21.4c-44.2,30.6-57.7,89.2-112.1,112.8h39.1c0,0,25.2,0.9,52.2-43.6
	s41.8-66.2,87.1-74s84.4,28.8,84.4,28.8S546.8,596.1,525.7,582.2L525.7,582.2z"/>
<circle class="st9" cx="483.4" cy="296" r="45.2"/>
<circle class="st6" cx="492.9" cy="295.2" r="30.7"/>
<path class="st7" d="M471.4,265.7c-23.3,15.2-12.1,43-12.1,43l-11.4,2.6c-5.8-9.1-6.1-21.4-2.6-31.5c3-8.4,7.9-15.2,20.1-20.6
	L471.4,265.7z"/>
<path class="st2" d="M478.7,54.6L441.7,124l19.2,7.6l38.9-71.4C485.5,51.9,478.7,54.6,478.7,54.6z"/>
<ellipse class="st2" cx="344.4" cy="506.8" rx="13.6" ry="4.3"/>
</svg>
