<?xml version="1.0" encoding="utf-8"?>
<!-- Generator: Adobe Illustrator 24.3.0, SVG Export Plug-In . SVG Version: 6.00 Build 0)  -->
<svg version="1.1" id="Layer_1" xmlns="http://www.w3.org/2000/svg" xmlns:xlink="http://www.w3.org/1999/xlink" x="0px" y="0px"
	 viewBox="0 0 800 800" style="enable-background:new 0 0 800 800;" xml:space="preserve">
<style type="text/css">
	.st0{fill:#36A970;}
	.st1{fill:#1AA05A;}
	.st2{fill:#15874B;}
	.st3{fill:#0B7034;}
</style>
<path class="st0" d="M464.6,400.1c-26.6-58.9-76-105.2-136.9-127.8v-142h1.6c10.2,0,19.3-4.1,26-10.8c6.7-6.7,10.8-15.8,10.8-26
	c0-20.3-16.5-36.8-36.7-36.8H156.8c-10.1,0-19.3,4.1-26,10.8c-6.7,6.7-10.8,15.8-10.8,26c0,20.3,16.5,36.7,36.8,36.7h1.6v142
	C64,307.4-2.7,399.5,0.1,506.7c3.4,129.9,110.1,235,240.1,236.5c33.9,0.4,66.3-6.2,95.8-18.4c-11.6-13.3-16.7-32-11.6-50.1
	C433.7,606.4,464.6,400.1,464.6,400.1z"/>
<path class="st1" d="M203.8,130.3h36.1c-20.3,0-36.8-16.5-36.8-36.7c0-10.2,4.1-19.3,10.8-26c6.7-6.7,15.9-10.8,26-10.8h-83.1
	c-10.1,0-19.3,4.1-26,10.8c-6.7,6.7-10.8,15.8-10.8,26c0,20.3,16.5,36.7,36.8,36.7h1.6l0,0v142C65.9,306.7,0,395.7,0,500.2
	C0,630.8,103.1,737.4,232.3,743c-49.8-5.6-89.5-112.2-89.5-242.8c0-104.5,25.4-193.5,61-227.9L203.8,130.3L203.8,130.3z"/>
<path class="st2" d="M407.2,527.8h-8.4c-31.1-8.9-42.8-27.6-91.6-27.6c-64.2,0-64.2,32.3-128.4,32.3c-14.7,0-26-1.7-35.5-4.3
	c-32.1-8.8-43.4-28-92.9-28c0,81.6,51,151.5,122.8,179.5c21.6,8.4,45.1,13.1,69.7,13.1c29,0,56.6-6.5,81.3-18.1h0v0l10-0.9
	L407.2,527.8z"/>
<path id="SVGCleanerId_0" class="st0" d="M173.3,679.6c-71.8-28-122.8-97.9-122.8-179.5c49.5,0,60.8,19.2,92.9,28
	C146.1,587.9,157.1,641.1,173.3,679.6z"/>
<g>
	<path id="SVGCleanerId_0_1_" class="st3" d="M173.3,679.6c-71.8-28-122.8-97.9-122.8-179.5c49.5,0,60.8,19.2,92.9,28
		C146.1,587.9,157.1,641.1,173.3,679.6z"/>
</g>
<path class="st0" d="M793.9,664.1L637.5,360.7V218.4h10c10.2,0,19.3-4.1,26-10.8c6.7-6.7,10.8-15.8,10.8-26
	c0-20.3-16.5-36.7-36.8-36.7H474.9c-10.1,0-19.3,4.1-26,10.8c-6.7,6.7-10.8,15.8-10.8,26c0,20.3,16.5,36.7,36.7,36.7h10v142.3
	l-20.3,39.4l-65.8,127.7l-70.3,136.3c-1.8,3.5-3.1,7-4.1,10.5h0c-5.1,18.2,0,36.9,11.6,50.1c9.7,11.1,24,18.4,40.7,18.4h369
	C786.3,743.2,812.5,700.2,793.9,664.1z"/>
<path class="st1" d="M521.3,181.7c0-10.2,4.1-19.3,10.8-26c6.7-6.7,15.9-10.8,26-10.8h-83.1c-10.1,0-19.3,4.1-26,10.8
	c-6.7,6.7-10.8,15.8-10.8,26c0,20.3,16.5,36.7,36.8,36.7h1.6h8.4v142.3l-20.3,39.4l-65.8,127.7l-70.3,136.3c-1.8,3.5-3.1,7-4.1,10.5
	h0c-5.1,18.2,0,36.9,11.6,50.1c9.7,11.1,24,18.4,40.7,18.4h106.8c-7,0-13.1-7.3-17.1-18.4c-4.9-13.3-7-32-4.9-50.1h0
	c0.4-3.5,1-7,1.7-10.5l29.6-136.3l27.7-127.7l8.5-39.4V218.4h29C537.8,218.4,521.3,201.9,521.3,181.7z"/>
<path class="st2" d="M749,687.3l-96.4-186.9c-13-6.1-23.4-13.7-48.6-13.7c-42.8,0-42.8,21.6-85.6,21.6c-8.4,0-15.1-0.8-20.9-2.2
	c-10.5-2.4-17.7-6.5-25.4-10.3l-98.7,191.6c-0.4,0.7-1,1.9,0.1,3.6c1.1,1.8,2.4,1.8,3.2,1.8h84.1h284.9c0.7,0,2.1,0,3.2-1.8
	C750,689.1,749.4,687.9,749,687.3z"/>
<path class="st3" d="M497.6,506.1l-4.7,21.7l-29.6,136.3c-0.8,3.5-1.3,7-1.7,10.5h0c-0.7,6-0.9,12.1-0.8,18.1h-84.1
	c-0.7,0-2.1,0-3.2-1.8c-1.1-1.8-0.5-3-0.1-3.6l98.7-191.6C479.9,499.5,487.1,503.6,497.6,506.1z"/>
</svg>
