<svg id="Livello_1" data-name="Livello 1" xmlns="http://www.w3.org/2000/svg" viewBox="0 0 64.11 61.35"><defs><style>.cls-1{fill:#37aa72;}</style></defs><rect class="cls-1" y="55.43" width="64.11" height="2.78"/><path class="cls-1" d="M39.26,63.08a5.3,5.3,0,0,1-.18,1.39,4,4,0,0,1-3.65,3.13,4,4,0,0,1-3.64-3.13,5.22,5.22,0,0,1,0-2.79h7.29A5.32,5.32,0,0,1,39.26,63.08Z" transform="translate(-3.38 -6.25)"/><path class="cls-1" d="M64.54,51.94v8.63H6.21V51.94H28.6c3.07,0,5.69,2.23,6.77,5.4,1.09-3.17,3.71-5.4,6.78-5.4Z" transform="translate(-3.38 -6.25)"/><rect class="cls-1" x="3.06" y="32.43" width="13.67" height="10.72"/><rect class="cls-1" x="47.49" width="13.67" height="43.42"/><path class="cls-1" d="M34.72,53V28H21.05V49.4H30A5.05,5.05,0,0,1,34.72,53Z" transform="translate(-3.38 -6.25)"/><path class="cls-1" d="M49.69,50.12V17.27H36V53.48s1.6-3.58,4.25-3.64S49.69,50.12,49.69,50.12Z" transform="translate(-3.38 -6.25)"/></svg>