<svg id="Livello_1" data-name="Livello 1" xmlns="http://www.w3.org/2000/svg" viewBox="0 0 661.59 661.59"><defs><style>.cls-1{fill:#36a970;}</style></defs><path class="cls-1" d="M432,174.84c-77.17,0-139.95,62.78-139.95,140,0,37.46,14.77,80,39.51,113.69,28,38.16,63.65,59.17,100.44,59.17s72.46-21,100.44-59.17C557.19,394.75,572,352.25,572,314.79,572,237.62,509.17,174.84,432,174.84Zm0,283c-26.65,0-54.49-17.12-76.38-47-20.81-28.37-33.74-65.17-33.74-96a110.12,110.12,0,0,1,220.23,0C542.12,377.84,490.27,457.81,432,457.81Z" transform="translate(-101.2 -75.82)"/><path class="cls-1" d="M432,75.82c-182.4,0-330.8,148.39-330.8,330.8S249.6,737.41,432,737.41,762.8,589,762.8,406.62,614.4,75.82,432,75.82Zm0,631.75a299.21,299.21,0,0,1-162.65-47.84,162.56,162.56,0,0,1,57.34-118.27c13.92-11.82,34.24-13.11,50.57-3.21,17.64,10.69,36.06,16.11,54.75,16.11s37.09-5.42,54.72-16.11c16.32-9.88,36.59-8.64,50.44,3.1a162.71,162.71,0,0,1,57.48,118.38A299.21,299.21,0,0,1,432,707.57Zm190.77-68.36a192.57,192.57,0,0,0-66.31-120.63c-23.66-20-57.89-22.39-85.19-5.84-25.81,15.63-52.73,15.63-78.54,0-27.34-16.57-61.63-14.16-85.35,6A192.35,192.35,0,0,0,241.2,639.19C174,584,131,500.21,131,406.62c0-166,135-301,301-301s301,135,301,301C733,500.22,690,584,622.77,639.21Z" transform="translate(-101.2 -75.82)"/></svg>