<?xml version="1.0" encoding="utf-8"?>
<!-- Generator: Adobe Illustrator 24.3.0, SVG Export Plug-In . SVG Version: 6.00 Build 0)  -->
<svg version="1.1" id="Livello_1" xmlns="http://www.w3.org/2000/svg" xmlns:xlink="http://www.w3.org/1999/xlink" x="0px" y="0px"
	 viewBox="0 0 864 864" style="enable-background:new 0 0 864 864;" xml:space="preserve">
<style type="text/css">
	.st0{fill:#BFEFD6;}
	.st1{fill:#4DAD7F;}
	.st2{fill:#FFA59C;}
	.st3{fill:#36A970;}
	.st4{fill:#87CB7F;}
	.st5{fill:#ED6666;}
	.st6{fill:#232E4C;}
	.st7{fill:#23554C;}
	.st8{fill:#F15731;}
	.st9{fill:#FFFFFF;}
</style>
<g id="Background_1_">
</g>
<ellipse class="st0" cx="422.16" cy="731.2" rx="352.82" ry="16.21"/>
<g>
	<path class="st0" d="M475.29,77.9C312.68,142.85,108.35,30.4,75.1,145.31c-33.26,114.91,1.43,376.54,436.88,310.7
		C947.43,390.17,904.41-93.47,475.29,77.9z"/>
</g>
<g>
	<path class="st1" d="M150.71,371.75c-0.04,0-0.09,0-0.13-0.01c-0.78-0.07-1.35-0.76-1.28-1.54c7.38-80.07,37.6-119.81,61.66-139.06
		c26.18-20.94,50.26-22.79,51.28-22.86c0.79-0.03,1.46,0.54,1.51,1.32s-0.54,1.46-1.32,1.51c-0.24,0.02-24.35,1.9-49.84,22.37
		c-23.56,18.91-53.18,58.03-60.46,136.98C152.05,371.19,151.43,371.75,150.71,371.75z"/>
	<g>
		<path class="st2" d="M387.31,322.22c1.07-0.66,1.77-1.46,1.69-2.41c-0.09-1.13-6.51,0.27-10.39,0.99c-0.57-0.05-1.1-0.08-1.57-0.1
			c0,0-5.53,5.59-1.85,7.73c3.69,2.13,15.28,3.52,18.51,0C396.33,325.56,392.31,323.49,387.31,322.22z"/>
	</g>
	<g>
		<path d="M328.51,515.68c0-0.01,0-0.02-0.01-0.03c-4.85-52.79-42.21-143-42.21-143l-41.68,9.93c0.29-1.73,0.58-2.69,0.87-2.68
			l-66.58-10.72c-4.48,30.9-5.46,94.96-6.63,118.61c-0.67,13.54,0.42,25.38,2.75,35.24c-0.45,0.33-0.9,0.64-1.34,1
			c-12.61,10.09-31.67,44.06-46.27,76.93c-14.59,32.87-44.34,105.22-28.66,107.93c14.87,2.57,107.65-145.85,122.28-165.95
			c0.16-0.22,0.28-0.43,0.42-0.65c0.14-0.2,0.28-0.38,0.42-0.58c0.16-0.24,0.31-0.51,0.47-0.77c0,0,0-0.01,0.01-0.01
			c8.71-14.46,13.73-59.13,17.03-97.77c8.83,22.46,18.08,44.3,22.68,55.87c3.41,8.57,7.98,21.9,14.44,33.48
			c-0.05,18.79,5.28,48.85,12.45,76.73c8.97,34.87,30.81,123.93,44.99,117.13C347.38,719.92,331.95,541.91,328.51,515.68z"/>
	</g>
	<g>
		<path class="st3" d="M379.64,322.94l-0.25-0.46c-0.82-1.47-1.67-1.68-2.52-1.8l-2.55-0.5c-1.7-0.36-3.4-0.72-5.09-1.14
			c-3.38-0.79-6.72-1.76-10.02-2.74c-6.6-1.98-12.99-4.46-19.15-7.09c-6.16-2.63-12.06-5.54-17.69-8.65l-4.13-2.44l-3.68-2.28
			c-2.33-1.65-4.62-3.35-6.75-5.34c-8.65-7.75-15.52-18.27-21.08-29.69c-1.33-2.9-2.72-5.79-3.93-8.78
			c-1.13-2.78-2.19-5.6-3.23-8.44c-2.1-10.79-4.4-19.29-6.87-23.88c-11.21-20.78-59.93-22.2-72.63-7.59
			C179.23,236.1,172.14,348.7,177.51,375c1.61,7.89,117.96,13.03,116.62-2.63c-1.08-12.51-2.96-36.61-5.57-62.22
			c0.61,0.5,1.19,1.03,1.82,1.51c3.27,2.63,6.91,4.88,10.6,6.98c0.93,0.52,1.9,0.98,2.85,1.46c0.95,0.44,1.93,1.03,2.84,1.32
			l5.52,2.09c7.39,2.58,14.92,4.37,22.45,5.52c7.54,1.14,15.1,1.5,22.56,1.49c3.74-0.04,7.45-0.15,11.16-0.42
			c1.85-0.11,3.7-0.29,5.54-0.48l2.77-0.32c0.93-0.07,1.85-0.26,2.81-1.75C380.36,326.21,380.47,324.44,379.64,322.94z"/>
	</g>
	<g>
		<g>
			<path class="st1" d="M223.37,439.03l-70.72-10.94c-3.85-0.6-6.72-4.27-6.37-8.16l4.43-49.61c0.35-3.89,3.78-6.59,7.63-5.99
				l70.72,10.94c3.85,0.6,6.72,4.27,6.37,8.16L231,433.05C230.66,436.94,227.22,439.63,223.37,439.03z"/>
		</g>
		<g>
			<path class="st4" d="M142.88,426.58l70.72,10.94c3.85,0.6,7.69-2.04,8.54-5.85l10.77-48.63c0.84-3.81-1.61-7.42-5.47-8.02
				l-70.72-10.94c-3.85-0.6-7.69,2.04-8.54,5.85l-10.77,48.63C136.57,422.38,139.03,425.98,142.88,426.58z"/>
		</g>
		<g>
			<path class="st1" d="M145.43,399.59l70.72,10.94c3.85,0.6,7.92-2,9.05-5.77l6.67-21.88c1.12-3.77-1.11-7.34-4.96-7.94
				l-70.72-10.94c-3.85-0.6-7.92,2-9.05,5.77l-6.67,21.88C139.35,395.42,141.58,398.99,145.43,399.59z"/>
		</g>
	</g>
	<g>
		<path class="st2" d="M245.16,204.13c0.4,6.73-4.77,12.19-11.51,12.16c-6.73-0.06-12.53-5.6-12.93-12.33l-1.33-22.39
			c-0.06-0.91,0.03-1.82,0.2-2.67c0.94-5.37,5.51-9.38,11.28-9.32c3.38,0.03,6.51,1.45,8.87,3.66c2.33,2.24,3.89,5.29,4.09,8.67
			l1.25,20.57L245.16,204.13z"/>
	</g>
	<g>
		<path class="st5" d="M245.07,202.48c-3.76,0.74-9.76-0.25-14.73-5.39c-3.92-4.04-9.08-13.39-10.76-18.19
			c0.94-5.37,5.51-9.38,11.28-9.32c3.38,0.03,6.51,1.45,8.87,3.66c2.33,2.24,3.89,5.29,4.09,8.67L245.07,202.48z"/>
	</g>
	<g>
		<path class="st2" d="M263.56,165.65c0,18.09-5.01,32.76-20.39,32.76s-27.85-14.67-27.85-32.76s12.47-32.76,27.85-32.76
			S263.56,147.56,263.56,165.65z"/>
	</g>
	<g>
		<path d="M254.94,124.93c-19.49-16.19-46.06-11.1-40.23,3.1l-7.57-5.04c0,0,0.89,5.74,4.74,6.95c-4.5,1.94-7.16,5.96-4.48,12.5
			c7.1,17.29,6.63,20.96,6.63,20.96c6.69,0.45,16.27-10.06,19.13-19.59c19.04,7.38,49.79,6.15,50.85-12.65
			C279.99,134.87,270.71,136.31,254.94,124.93z"/>
	</g>
	<g>
		<path class="st2" d="M219.66,164.23c1.34,5.05,1.04,9.52-3.26,10.66c-4.3,1.14-8.87-2.03-10.21-7.08
			c-1.34-5.05,1.05-10.08,5.34-11.22C215.83,155.45,218.31,159.17,219.66,164.23z"/>
	</g>
	<g>
		<path class="st6" d="M239.59,160.48c-0.19,0.85,0.35,1.69,1.21,1.88c0.85,0.19,1.69-0.35,1.88-1.21c0.19-0.85-0.35-1.69-1.21-1.88
			C240.62,159.09,239.78,159.63,239.59,160.48z"/>
	</g>
	<g>
		<path class="st6" d="M257.63,159.94c-0.19,0.85,0.35,1.69,1.21,1.88c0.85,0.19,1.69-0.35,1.88-1.21c0.19-0.85-0.35-1.69-1.21-1.88
			C258.66,158.55,257.82,159.09,257.63,159.94z"/>
	</g>
	<g>
		<path d="M245.48,154.76l-10.59,4.35C236.23,150.4,245.48,154.76,245.48,154.76z"/>
	</g>
	<g>
		<path d="M257.3,153l10.53,4.48C266.61,148.75,257.3,153,257.3,153z"/>
	</g>
	<path class="st5" d="M254.16,173.95c-0.5,0-1.06-0.02-1.67-0.06l0.1-1.42c3.08,0.21,4.38-0.19,4.88-0.46
		c-1.79-3.38-4.09-9.63-4.2-9.91l1.33-0.49c0.03,0.07,2.61,7.1,4.38,10.21c0.11,0.19,0.12,0.43,0.04,0.63
		C258.85,172.83,258.04,173.95,254.16,173.95z"/>
	<path class="st5" d="M240.41,187.57c-4.82-4.4-5.03-8.22-5.03-8.38c-0.01-0.27,0.13-0.52,0.37-0.65c0.23-0.13,0.53-0.11,0.75,0.04
		c0.05,0.03,5.09,3.4,12.17,3.37l0.01,1.42c-5.31-0.04-9.44-1.68-11.52-2.76c0.48,1.37,1.61,3.54,4.21,5.91L240.41,187.57z"/>
	<g>
		<path class="st7" d="M323.49,718.18c-1.6,2.68,0.99,9.84,2.19,16.68c1.17,6.62,8.89,1.41,16.04,0.66
			c16.65-1.76,38.4-7.85,25.78-9.61c-16.96-2.37-25.6-9.83-29.62-10.62C336.7,715.01,324.4,717.8,323.49,718.18z"/>
	</g>
	<g>
		<path class="st7" d="M94.91,692.77c-2.89,1.16-4.86,7.9-8.05,14.06c-3.09,5.97,6.21,6.51,12.35,10.26
			c14.3,8.71,35.28,17.06,26.33,8c-12.04-12.18-12.24-21.68-14.95-24.75C109.81,699.41,95.87,693.03,94.91,692.77z"/>
	</g>
	<g>
		<path class="st2" d="M183.12,397.57L183.12,397.57c-0.29-0.93-0.6-1.78-0.9-2.48c0,0-7.41-2.64-7.78,1.61s0.06,16.03,5.71,16.78
			c3.89,0.51,4.85-3.33,4.54-7.82c1.36,1.43,2.52,2.17,2.61,0.86C187.49,403.68,184.76,398.71,183.12,397.57z"/>
	</g>
	<g>
		<path class="st3" d="M220.29,231.34l-1.65,1.77l-1.83,2c-1.23,1.35-2.45,2.73-3.65,4.13c-2.4,2.81-4.78,5.65-7.03,8.58
			c-4.54,5.83-8.74,11.88-12.47,18.07c-7.38,12.4-12.9,25.55-14.27,38.72c-0.27,3.03-0.43,7.23-0.62,11.01
			c-0.1,3.86-0.25,7.74-0.3,11.62c-0.1,7.77-0.03,15.59,0.18,23.46c0.19,7.87,0.65,15.76,1.35,23.66c0.33,3.95,0.78,7.89,1.27,11.84
			c0.26,1.97,0.52,3.94,0.82,5.9l0.46,2.93c0.16,0.97,0.12,2.01-0.8,3.29l-0.18,0.25c-1.08,1.49-3.02,1.99-4.65,1.32
			c-1.53-0.63-2.14-1.52-2.54-2.48l-1.17-2.87c-0.78-1.91-1.5-3.83-2.23-5.76c-1.43-3.86-2.82-7.74-4.1-11.65
			c-2.58-7.83-4.89-15.77-6.93-23.82c-1.92-8.06-3.6-16.22-4.76-24.48c-0.59-4.13-1.1-8.28-1.49-12.44
			c-0.3-4.25-0.83-8.09-0.72-13.08c0.22-9.46,1.76-18.77,4.56-27.45c2.72-8.72,6.4-16.94,10.76-24.63c4.28-7.74,9.3-14.9,14.68-21.7
			c2.74-3.36,5.53-6.67,8.52-9.82c1.49-1.58,3-3.14,4.57-4.68l2.41-2.28c0.86-0.8,1.57-1.44,2.69-2.41
			c5.94-5.13,14.91-4.47,20.03,1.47c4.77,5.53,4.53,13.69-0.33,18.93L220.29,231.34z"/>
	</g>
	<path class="st4" d="M233.07,392.04c-0.16,0-0.32-0.03-0.48-0.08c-0.74-0.27-1.12-1.08-0.86-1.82
		c39.08-108.91,29.28-179.54,29.18-180.24c-0.11-0.78,0.42-1.5,1.2-1.61c0.75-0.11,1.5,0.42,1.61,1.2
		c0.11,0.71,10.03,71.97-29.31,181.62C234.2,391.68,233.66,392.04,233.07,392.04z"/>
</g>
<path class="st1" d="M656.06,197.26c7.85,0.98,25.33,1.47,32.19,13.23c6.86,11.76,11.76,24.5,8.66,24.82
	c-3.1,0.33-37.73-4.25-37.73-4.25L656.06,197.26z"/>
<g>
	<path class="st4" d="M641.98,215.01c35.17-2.57,65.55-3.54,74.7,12.13c9.15,15.67,38.54,135.89-10.78,123.8
		c-49.32-12.09-56.42-2.2-59.57-33.28C643.18,286.59,641.98,215.01,641.98,215.01z"/>
</g>
<g>
	<path class="st3" d="M687.69,361.73l-60.14,1.65l-32.87-22.8c2.55,2.38-89.73,103.07-95.19,132.96c-0.99,5.4-1.02,10.19-0.29,14.36
		c0.03,0.18,0.06,0.36,0.1,0.54c0.12,0.63,0.26,1.25,0.42,1.85c0,0.01,0.01,0.02,0.01,0.03c0.47,1.77,1.1,3.41,1.87,4.9
		c12.04,30.04,64.54,172.27,79.11,173.21c15.89,1.02,3.84-62.22-2.68-97.59c-5.62-30.5-11.8-64.55-19.74-81.53
		c4.44-3.78,8.94-8.19,13.43-13.34c6.37-7.31,17.62-20.64,29.93-35.57c-4.84,25.31-8.65,52.1-8.23,72.26c0,0.01,0,0.02,0,0.03
		c-0.49,26.23,20.35,202.18,34.58,204.93c15.01,2.9,16.49-83.38,17.75-124.33c0.89-28.88,3.43-59.23,1.7-77.44
		c5.27-12.95,8.39-27.18,10.86-36.42C664.57,456.01,683.44,392.8,687.69,361.73z"/>
</g>
<g>
	<path class="st8" d="M588.58,648.23c2.07,0.86,4.49,6.58,9.38,11.5c4.74,4.76-3.95,8.08-8.68,13.5
		c-11.01,12.61-32.14,28.07-26.33,16.73c7.81-15.24,8.26-25.38,9.93-29.11C573.33,659.72,587.74,648.76,588.58,648.23z"/>
</g>
<g>
	<path class="st2" d="M524.9,352.86c-5.01,3.29-16.69,13.38-10.23,15.25c4.59,1.33,13.78-5.86,15.82-9.6
		C532.53,354.77,524.9,352.86,524.9,352.86z"/>
</g>
<g>
	<path class="st2" d="M524.32,353.48c-3.54,1.38-10.66,3.74-10.12,4.82c1.4,2.78,9.04-0.04,10.66-1.22
		C526.48,355.91,524.32,353.48,524.32,353.48z"/>
</g>
<g>
	<path class="st7" d="M665.78,208.49c-12.7-14.61-61.42-13.19-72.63,7.59c-3.31,6.13-6.3,19.26-8.94,35.52
		c-0.64,2.17-1.28,4.35-1.98,6.5c-3.82,12.18-8.43,24.01-13.86,35.32c-1.28,2.89-2.85,5.55-4.26,8.36l-2.15,4.03l-1.08,2.02
		l-1.2,1.96c-3.04,5.34-6.58,10.54-10.34,15.7c-3.78,5.14-7.78,10.29-12.21,15.12c-2.19,2.44-4.46,4.83-6.81,7.15
		c-1.17,1.16-2.37,2.3-3.58,3.42l-1.83,1.66c-0.64,0.5-1.18,1.16-1.12,2.76l0.02,0.53c0.06,1.6,0.98,3.12,2.52,3.86
		c1.51,0.73,2.4,0.5,3.18,0.1l2.41-1.11c1.6-0.75,3.18-1.53,4.75-2.33c3.14-1.6,6.23-3.31,9.28-5.12
		c6.07-3.65,12.06-7.59,17.69-12.12c2.87-2.21,5.52-4.68,8.23-7.14c1.1-1.08,2.18-2.17,3.25-3.27c-1.51,16.6-2.66,30.99-3.41,39.72
		c-1.35,15.66,115,10.52,116.62,2.63C693.72,345.07,686.62,232.47,665.78,208.49z"/>
</g>
<g>
	<path class="st1" d="M688.22,302.99c0,0-9.15,13.5-24.89,0c-12.35-10.6-11.06-31.84-6.28-51.32l-15.66-8.2
		c-8.28,39.68,1.43,57.8,13.94,68.12c12.85,10.61,29.62,8.93,34.74,2.61C689.97,308.98,688.22,302.99,688.22,302.99z"/>
</g>
<g>
	<path class="st2" d="M620.71,200.5c-0.4,6.73,4.77,12.19,11.51,12.16c6.73-0.06,12.53-5.6,12.93-12.33l1.33-22.39
		c0.06-0.91-0.03-1.82-0.2-2.67c-0.94-5.37-5.51-9.38-11.28-9.32c-3.38,0.03-6.51,1.45-8.87,3.66c-2.33,2.24-3.89,5.29-4.09,8.67
		l-1.25,20.57L620.71,200.5z"/>
</g>
<g>
	<path class="st5" d="M620.79,198.85c3.76,0.74,9.76-0.25,14.73-5.39c3.92-4.04,9.08-13.39,10.76-18.19
		c-0.94-5.37-5.51-9.38-11.28-9.32c-3.38,0.03-6.51,1.45-8.87,3.66c-2.33,2.24-3.89,5.29-4.09,8.67L620.79,198.85z"/>
</g>
<g>
	<path class="st2" d="M602.3,162.02c0,18.09,5.01,32.76,20.39,32.76s27.85-14.67,27.85-32.76s-12.47-32.76-27.85-32.76
		C607.31,129.26,602.3,143.92,602.3,162.02z"/>
</g>
<g>
	<path class="st8" d="M649.89,121.1c-10.78-6.39-42.78-9.81-52.64-0.49c-11.92,11.27,4.74,17.8,16.08,17.8c0,0,10.21-1.1,20.34-3.3
		c-3.64,11.33,12.44,20.63,16.88,26.9c6.96,9.83,11.33-18.21,11.76-31.6C662.5,124.43,657.43,119.38,649.89,121.1z"/>
</g>
<g>
	<path class="st2" d="M646.21,160.6c-1.34,5.05-1.04,9.52,3.26,10.66c4.3,1.14,8.87-2.03,10.21-7.08
		c1.34-5.05-1.05-10.08-5.34-11.22C650.04,151.82,647.55,155.54,646.21,160.6z"/>
</g>
<g>
	<path class="st6" d="M626.27,156.85c0.19,0.85-0.35,1.69-1.21,1.88c-0.85,0.19-1.69-0.35-1.88-1.21c-0.19-0.85,0.35-1.69,1.21-1.88
		C625.24,155.46,626.08,156,626.27,156.85z"/>
</g>
<g>
	<path class="st6" d="M608.24,156.3c0.19,0.85-0.35,1.69-1.21,1.88c-0.85,0.19-1.69-0.35-1.88-1.21c-0.19-0.85,0.35-1.69,1.21-1.88
		C607.21,154.91,608.05,155.45,608.24,156.3z"/>
</g>
<g>
	<path class="st8" d="M620.38,149.84l10.58,4.35C629.63,145.48,620.38,149.84,620.38,149.84z"/>
</g>
<g>
	<path class="st8" d="M608.56,148.08l-10.53,4.48C599.26,143.83,608.56,148.08,608.56,148.08z"/>
</g>
<path class="st5" d="M611.7,170.31c-3.88,0-4.69-1.12-4.85-1.49c-0.09-0.2-0.07-0.44,0.04-0.63c1.77-3.11,4.35-10.14,4.38-10.21
	l1.33,0.49c-0.1,0.28-2.41,6.55-4.21,9.93c0.47,0.23,1.76,0.65,4.89,0.44l0.1,1.42C612.76,170.29,612.21,170.31,611.7,170.31z"/>
<path class="st9" d="M617.19,179.03c-6.36-3.94,12.58-3.5,12.58-3.5S626.72,184.93,617.19,179.03z"/>
<g>
	<path class="st8" d="M636.42,706.98c1.91,2.17,2.34,9.84,2.75,16.66c0.4,6.7-10.68,3.7-17.95,4.82c-16.93,2.6-39.47,2.34-27-2.63
		c16.78-6.67,23.78-16.22,27.73-18.02C623.11,707.25,635.45,706.85,636.42,706.98z"/>
</g>
<g>
	<path class="st2" d="M655.33,266.81L655.33,266.81c-0.05-1.99-2.71-7.01-5.18-8.4c-1.14-0.64-1.16,0.73-0.71,2.65
		c-3.59-2.72-7.33-4.02-9.03-0.49c-2.47,5.13,7.14,11.96,10.89,13.98c3.75,2.02,5.61-5.62,5.61-5.62
		C656.49,268.28,655.95,267.56,655.33,266.81z"/>
</g>
<path class="st7" d="M715.28,265.54c-2.53-8.06-6.33-14.07-10.23-19.69c-3.9-5.59-8.21-10.5-12.6-15.19
	c-4.42-4.65-9.01-9-13.77-13.11c-2.38-2.05-4.78-4.07-7.26-5.99c-2.51-1.97-4.89-3.76-7.74-5.72c-6.89-4.75-16.85-2.68-20.94,5.63
	c-2.82,5.72-1.21,12.66,3.6,16.85l0.27,0.23l6.24,5.44l6.33,5.64c4.17,3.79,8.27,7.63,12.15,11.53c3.9,3.88,7.54,7.9,10.79,11.85
	c3.19,3.94,5.92,8.09,7.31,11.33c0.7,1.61,1,2.85,1.09,3.34l0.2,1.19l-2.36,0.24c-0.86,0.09-1.71,0.08-2.56-0.07
	c-4.32-0.74-9.28-2.28-14.05-4.25c-2.65-1.07-5.31-2.25-7.94-3.52c-1.32-0.63-2.63-1.29-3.93-1.97l-1.95-1.03
	c-0.61-0.38-1.32-0.66-2.78,0l-0.42,0.19c-1.44,0.67-2.56,1.99-2.88,3.67c-0.32,1.63,0.13,2.29,0.67,2.85l1.56,1.75
	c1.05,1.16,2.11,2.3,3.2,3.43c2.17,2.26,4.42,4.47,6.79,6.62c2.38,2.14,4.86,4.22,7.55,6.21c2.69,2,5.59,3.87,8.96,5.49
	c3.38,1.6,7.21,3.03,12.34,3.36c2.57,0.1,5.55-0.19,8.65-1.28c3.1-1.1,6.18-3.12,8.4-5.55c2.25-2.42,3.76-5.03,4.81-7.45
	c0.55-1.29,0.95-2.24,1.32-3.68c0.37-1.39,0.61-2.78,0.75-4.14C717.4,274.28,716.51,269.55,715.28,265.54z"/>
<g>
	<g>
		<path class="st1" d="M669.52,210.02c0.49-1.05,0.36-2.27-0.34-3.19c-2.13-2.78-7.24-8.29-14.46-8.42c-1.14-0.02-2.19,0.7-2.6,1.77
			c-6.05,15.99-10.08,29.67-12.54,41.48l15.66,8.2C659.68,231.71,667.16,215.09,669.52,210.02z"/>
	</g>
</g>
</svg>
