<svg id="Livello_1" data-name="Livello 1" xmlns="http://www.w3.org/2000/svg" viewBox="0 0 569.03 186.34"><defs><style>.cls-1{fill:#37aa72;}.cls-2{font-size:59.45px;fill:#39a971;font-family:Rubik-Bold, Rubik;font-weight:700;}.cls-3{letter-spacing:-0.01em;}</style></defs><rect class="cls-1" y="168.37" width="194.73" height="8.46"/><path class="cls-1" d="M137.78,357.51a16.16,16.16,0,0,1-.57,4.22c-1.51,5.52-5.9,9.51-11.07,9.51s-9.56-4-11.07-9.51a16.22,16.22,0,0,1,0-8.45h22.14A16.18,16.18,0,0,1,137.78,357.51Z" transform="translate(-28.78 -184.9)"/><path class="cls-1" d="M214.56,323.68V349.9H37.37V323.68h68c9.32,0,17.3,6.79,20.58,16.4,3.29-9.61,11.26-16.4,20.58-16.4Z" transform="translate(-28.78 -184.9)"/><rect class="cls-1" x="9.31" y="98.5" width="41.52" height="32.55"/><rect class="cls-1" x="144.25" width="41.52" height="131.9"/><path class="cls-1" d="M124,327V250.85H82.46V316h27S120.57,315.78,124,327Z" transform="translate(-28.78 -184.9)"/><path class="cls-1" d="M169.46,318.15V218.38H127.94v110s4.84-10.86,12.88-11S169.46,318.15,169.46,318.15Z" transform="translate(-28.78 -184.9)"/><text class="cls-2" transform="translate(235.76 113.04)">Stud<tspan class="cls-3" x="143.62" y="0">y</tspan><tspan x="180.48" y="0">Up</tspan></text></svg>