<svg id="Livello_1" data-name="Livello 1" xmlns="http://www.w3.org/2000/svg" viewBox="0 0 543.54 556.54"><defs><style>.cls-1{opacity:0.7;}.cls-2,.cls-3{fill:#37aa72;}.cls-3{opacity:0.7;}.cls-13,.cls-3{isolation:isolate;}.cls-16,.cls-25,.cls-4{fill:none;}.cls-10,.cls-11,.cls-12,.cls-14,.cls-15,.cls-17,.cls-18,.cls-19,.cls-20,.cls-21,.cls-22,.cls-23,.cls-25,.cls-26,.cls-4,.cls-6,.cls-8,.cls-9{stroke:#263339;}.cls-17,.cls-18,.cls-19,.cls-21,.cls-22,.cls-23,.cls-25,.cls-26,.cls-4,.cls-6,.cls-8{stroke-linecap:round;}.cls-14,.cls-15,.cls-21,.cls-22,.cls-23,.cls-25,.cls-26,.cls-4,.cls-6,.cls-8,.cls-9{stroke-miterlimit:10;}.cls-14,.cls-20,.cls-22,.cls-5{fill:#263339;}.cls-10,.cls-11,.cls-12,.cls-13,.cls-18,.cls-19,.cls-21,.cls-6,.cls-9{fill:#fff;}.cls-15,.cls-17,.cls-7,.cls-8{fill:#9bcda3;}.cls-10{stroke-miterlimit:10;}.cls-11{stroke-miterlimit:10;}.cls-12{stroke-miterlimit:10;}.cls-13{opacity:0.62;}.cls-17{stroke-miterlimit:10;}.cls-18{stroke-miterlimit:10;}.cls-19,.cls-20{stroke-miterlimit:10;}.cls-21,.cls-25{stroke-width:2px;}.cls-23,.cls-24{fill:#d9d9d9;}.cls-26{fill:#8c8c8c;}</style></defs><g id="Background_Simple" data-name="Background Simple" class="cls-1"><path class="cls-2" d="M105.27,241.34S43.7,300.74,53.28,413s99.06,160.19,162.14,143.52S295.14,503.79,347,486.36s146,4.44,199.09-63.29,1.27-190.62-70.55-270.66S202.39,103.71,105.27,241.34Z" transform="translate(-24.3 -109.03)"/><path class="cls-3" d="M105.27,241.34S43.7,300.74,53.28,413s99.06,160.19,162.14,143.52S295.14,503.79,347,486.36s146,4.44,199.09-63.29,1.27-190.62-70.55-270.66S202.39,103.71,105.27,241.34Z" transform="translate(-24.3 -109.03)"/></g><g id="Floor"><line class="cls-4" x1="506.89" y1="525.39" x2="526.5" y2="525.39"/><line class="cls-4" x1="0.5" y1="525.39" x2="495.85" y2="525.39"/></g><g id="Plant"><path class="cls-5" d="M402.45,525.88c2.56,1.12,8.83,1,8.83,1s-1.35-4.1-1.46-4.35c-1.38-2.88-5.73-7.62-9.26-7.15a4.23,4.23,0,0,0-3.39,5.3C397.75,523.11,400.27,524.93,402.45,525.88Z" transform="translate(-24.3 -109.03)"/><path class="cls-5" d="M404.61,543.57c2.66.39,8.25-1.23,8.7-1.36a74,74,0,0,0,3.39,9.38c.77,1.79,1.6,3.56,2.45,5.32-.51-.75-1-1.41-1-1.5-2.09-2.41-7.54-5.84-10.82-4.45a4.24,4.24,0,0,0-1.88,6c1.22,2.2,4.13,3.3,6.48,3.64s7.19-.94,8.45-1.3c.34.68.66,1.35,1,2,1.62,3.22,3.25,6.43,4.75,9.63.53,1.13,1,2.26,1.5,3.38-.45-.66-.84-1.21-.91-1.29-2.09-2.41-7.53-5.85-10.82-4.45a4.22,4.22,0,0,0-1.87,6c1.21,2.21,4.12,3.3,6.47,3.65s6.72-.82,8.23-1.24c.46,1.17.92,2.34,1.32,3.5.25.79.55,1.54.75,2.35s.45,1.59.67,2.38c.36,1.52.75,3.09,1.07,4.59.23,1,.43,2,.63,3-.51-1.13-1.56-3.32-1.67-3.49-1.7-2.7-6.56-6.92-10-6a4.22,4.22,0,0,0-2.76,5.65c.86,2.37,3.57,3.89,5.85,4.58,2.5.77,8.05.07,8.75,0,.33,1.66.64,3.27.9,4.8.15.81.27,1.57.4,2.34h2.2c-.16-.88-.33-1.78-.52-2.72-.33-1.69-.72-3.48-1.13-5.32a47.78,47.78,0,0,0,4.88-2.3c1.83,2,6.51,4.3,7.12,4.59-.64,1.57-1.28,3.09-1.9,4.51-.18.43-.37.83-.55,1.24H447c.71-1.71,1.43-3.56,2.16-5.48.67.14,6.17,1.26,8.73.68,2.32-.53,5.13-1.84,6.17-4.14a4.22,4.22,0,0,0-2.33-5.84c-3.38-1.13-8.55,2.71-10.44,5.27-.11.16-1.14,1.93-1.77,3.07.27-.73.54-1.42.81-2.17.54-1.47,1-3,1.57-4.55.23-.78.47-1.57.71-2.37s.42-1.64.63-2.47c.46-1.93.84-3.91,1.17-5.91,1.29.46,5.89,2.07,8.28,1.9s5.35-1,6.73-3.15a4.23,4.23,0,0,0-1.42-6.13c-3.18-1.63-8.86,1.38-11.12,3.63-.14.14-1.58,1.94-2.36,2.94.19-1.21.39-2.41.54-3.63.44-3.54.77-7.14,1.12-10.73.11-1.1.23-2.19.35-3.28.45.17,5.89,2.19,8.56,2,2.37-.16,5.35-1,6.73-3.15a4.22,4.22,0,0,0-1.42-6.12c-3.17-1.64-8.86,1.38-11.12,3.63-.17.16-2.24,2.75-2.73,3.44.25-2.42.53-4.82.9-7.17a75.7,75.7,0,0,1,2.05-9.43c.22.08,5.88,2.22,8.62,2,2.37-.17,5.35-1,6.73-3.16a4.23,4.23,0,0,0-1.42-6.12c-3.18-1.64-8.87,1.38-11.12,3.63-.18.18-2.41,3-2.77,3.49.05-.18.08-.37.14-.55a54.86,54.86,0,0,1,3.73-8.92c.82-1.59,1.68-3.06,2.56-4.47,1,.5,5.67,2.76,8.15,2.86s5.44-.44,7-2.39a4.22,4.22,0,0,0-.73-6.24c-3-2-9,.39-11.46,2.38-.13.11-1.39,1.36-2.29,2.28.4-.63.81-1.29,1.21-1.89,1.49-2.24,3-4.21,4.35-5.94.77-1,1.49-1.85,2.17-2.66,1.26,0,6.31-.17,8.51-1.21s4.62-2.9,5.15-5.37a4.23,4.23,0,0,0-3.54-5.2c-3.55-.38-7.76,4.48-9.06,7.4-.11.25-1.41,4.39-1.35,4.38h.08c-.68.77-1.39,1.59-2.15,2.51-1.39,1.7-2.94,3.64-4.48,5.87a74.3,74.3,0,0,0-4.66,7.42,54.2,54.2,0,0,0-4,9l0,.11c0-1.05,0-4,0-4.2-.41-3.16-3.06-9-6.58-9.67a4.22,4.22,0,0,0-4.87,4c-.2,2.51,1.62,5,3.39,6.61,2,1.79,7.56,3.52,8,3.66a74.65,74.65,0,0,0-2.35,9.7c-.34,1.91-.63,3.84-.89,5.78,0-.9,0-1.71,0-1.82-.41-3.17-3.06-9-6.57-9.68a4.23,4.23,0,0,0-4.88,4c-.2,2.52,1.62,5,3.39,6.62s6.52,3.18,7.77,3.58c-.09.74-.19,1.49-.28,2.23-.43,3.59-.84,7.16-1.35,10.66-.18,1.23-.41,2.44-.62,3.65,0-.81,0-1.48-.05-1.58-.41-3.17-3.06-9-6.57-9.68a4.22,4.22,0,0,0-4.87,4c-.21,2.51,1.62,5,3.39,6.61s6.06,3,7.54,3.51c-.26,1.23-.52,2.46-.83,3.64-.23.81-.39,1.59-.66,2.39s-.51,1.57-.76,2.34c-.54,1.48-1.08,3-1.64,4.43-.38,1-.77,1.93-1.15,2.88.19-1.23.52-3.63.53-3.83a16.49,16.49,0,0,0-2.2-8,4.85,4.85,0,0,0-.06-.93,4.22,4.22,0,0,0-5.17-3.58c-3.45.91-5.64,7-5.8,10.15,0,.19.11,2.24.21,3.53-.17-.75-.33-1.48-.52-2.25-.36-1.53-.77-3-1.2-4.67l-.71-2.36c-.22-.79-.56-1.6-.83-2.41-.69-1.86-1.47-3.72-2.3-5.58,1.34-.32,6.06-1.52,8-3s3.89-3.82,3.87-6.34a4.22,4.22,0,0,0-4.56-4.32c-3.55.38-6.63,6-7.27,9.16,0,.19-.25,2.49-.34,3.75-.51-1.11-1-2.22-1.56-3.33-1.59-3.2-3.29-6.38-5-9.56-.52-1-1-2-1.53-2.93.48-.11,6.12-1.42,8.25-3.05,1.89-1.45,3.89-3.82,3.87-6.34a4.22,4.22,0,0,0-4.56-4.33c-3.55.39-6.63,6-7.27,9.16,0,.24-.35,3.54-.38,4.38-1.12-2.15-2.21-4.31-3.21-6.48a75,75,0,0,1-3.48-9c.22,0,6.12-1.39,8.3-3.06,1.89-1.45,3.89-3.82,3.87-6.34a4.21,4.21,0,0,0-4.56-4.32c-3.55.38-6.63,6-7.27,9.16-.05.24-.37,3.79-.38,4.44-.06-.18-.14-.36-.19-.54a54.85,54.85,0,0,1-1.81-9.5c-.2-1.77-.29-3.48-.34-5.14,1.13-.14,6.26-.82,8.39-2.11s4.28-3.37,4.54-5.87a4.22,4.22,0,0,0-4.06-4.8c-3.57,0-7.25,5.27-8.23,8.3-.06.17-.41,1.91-.66,3.17,0-.75,0-1.52,0-2.24,0-2.7.17-5.17.34-7.36.11-1.24.23-2.37.35-3.41,1-.71,5.17-3.63,6.43-5.71s2.26-5,1.33-7.31a4.22,4.22,0,0,0-5.81-2.39c-3.18,1.64-4,8-3.49,11.17.05.27,1.25,4.44,1.3,4.4l.07,0c-.14,1-.28,2.08-.41,3.27-.22,2.19-.44,4.66-.5,7.37a72.89,72.89,0,0,0,.2,8.76,55.42,55.42,0,0,0,1.63,9.66l0,.11c-.56-.88-2.21-3.3-2.36-3.47-2.09-2.41-7.53-5.84-10.82-4.45a4.22,4.22,0,0,0-1.87,6C399.35,542.14,402.26,543.23,404.61,543.57Z" transform="translate(-24.3 -109.03)"/><path class="cls-5" d="M465.83,527.26c.06,0,1.14-4.16,1.18-4.44.44-3.15-.57-9.51-3.78-11.07a4.23,4.23,0,0,0-5.75,2.55c-.86,2.37.23,5.27,1.52,7.27C460.52,523.92,465.83,527.26,465.83,527.26Z" transform="translate(-24.3 -109.03)"/><path class="cls-6" d="M444.07,644.23h-4.82a20.87,20.87,0,0,1-20.86-20.87v-24.5H465v24.75A20.76,20.76,0,0,1,444.07,644.23Z" transform="translate(-24.3 -109.03)"/><path class="cls-6" d="M465,622.49v-5.65c-3.7,2.9-8.5,2.26-12,0-6.39-4-13.82-.87-14.14-.74a2.45,2.45,0,1,0,2,4.5s5.41-2.23,9.56.39a16.56,16.56,0,0,0,8.86,2.68A14.43,14.43,0,0,0,465,622.49Z" transform="translate(-24.3 -109.03)"/><path class="cls-6" d="M418.39,621.75a36,36,0,0,0,10.26-3.41c8.09-3.88,22.09-9.44,25.45-3.22a2.6,2.6,0,0,0,2.7,1.46,2.47,2.47,0,0,0,1.76-3.52c-3.89-7.77-14.67-7.48-32,.86a32.26,32.26,0,0,1-8.14,2.85v5Z" transform="translate(-24.3 -109.03)"/><circle class="cls-6" cx="399.96" cy="501.32" r="1.73"/><path class="cls-6" d="M435.92,606.89a1.73,1.73,0,1,1-1.72-1.73A1.73,1.73,0,0,1,435.92,606.89Z" transform="translate(-24.3 -109.03)"/><path class="cls-6" d="M447.58,604.3a1.73,1.73,0,1,1-1.72-1.73A1.73,1.73,0,0,1,447.58,604.3Z" transform="translate(-24.3 -109.03)"/><path class="cls-6" d="M459,605.81a1.73,1.73,0,1,1-1.73-1.73A1.72,1.72,0,0,1,459,605.81Z" transform="translate(-24.3 -109.03)"/><circle class="cls-6" cx="418.75" cy="514.92" r="1.73"/><path class="cls-6" d="M453.41,627.41a1.73,1.73,0,1,1-1.72-1.73A1.72,1.72,0,0,1,453.41,627.41Z" transform="translate(-24.3 -109.03)"/><path class="cls-6" d="M462.05,627.41a1.73,1.73,0,1,1-1.72-1.73A1.72,1.72,0,0,1,462.05,627.41Z" transform="translate(-24.3 -109.03)"/></g><g id="Lines"><path class="cls-7" d="M159.21,136.32a51.82,51.82,0,0,0-18.06,9.61,33,33,0,0,0-6.76,7.84A24.28,24.28,0,0,0,131,163.6l-.16,2.64.18,2.63a25.48,25.48,0,0,0,.39,2.6c.22.84.38,1.71.66,2.53a49.29,49.29,0,0,0,4.13,9.53c3.27,6.07,7.29,11.63,9.86,17.78a33.08,33.08,0,0,1,2.71,9.45,17.59,17.59,0,0,1-1.32,9.3,21,21,0,0,1-6,7.41,55,55,0,0,1-8.3,5.5c-5.86,3.31-12.09,6.16-18,9.85a50,50,0,0,0-8.38,6.45,28.51,28.51,0,0,0-6.27,8.86A25.09,25.09,0,0,0,98.3,268.9a22.49,22.49,0,0,0,3.14,10.67,38,38,0,0,0,7,8.27c2.59,2.41,5.36,4.55,8,6.63a30.31,30.31,0,0,1,6.64,6.7c1.63,2.5,2.48,5.2,1.68,7.65-.63,2.51-2.8,4.8-5.26,6.67a39.14,39.14,0,0,1-4,2.62L111,320.63a84.44,84.44,0,0,0-8.79,5.76,32.77,32.77,0,0,0-7.53,7.86,23,23,0,0,0-3.63,10.44,18,18,0,0,0-.11,2.74,19.42,19.42,0,0,0,.13,2.67c.18,1.74.29,3.48.62,5.2a72.33,72.33,0,0,0,6.13,19.84,74.25,74.25,0,0,0,5.16,9,54.18,54.18,0,0,0,6.44,8,.22.22,0,0,0,.31,0,.23.23,0,0,0,0-.32v0a73.87,73.87,0,0,1-14.84-36.95c-.23-1.65-.23-3.32-.32-5l-.05-1.25c0-.41,0-.8,0-1.19a15.43,15.43,0,0,1,.18-2.36,18.79,18.79,0,0,1,3.35-8.55c3.58-5.12,9.34-8.63,15.2-11.86l4.46-2.47a45.18,45.18,0,0,0,4.57-2.93,24.91,24.91,0,0,0,4.16-3.83,9.7,9.7,0,0,0,.89-1.19,13.71,13.71,0,0,0,.83-1.26,13.45,13.45,0,0,0,1.19-2.87,11.57,11.57,0,0,0,.49-3.15,14,14,0,0,0-.12-1.59l-.09-.79-.2-.75c-.14-.49-.26-1-.43-1.48l-.61-1.37a7.37,7.37,0,0,0-.7-1.3l-.76-1.23a34.78,34.78,0,0,0-7.77-7.7c-2.75-2-5.42-4-7.88-6.21a34,34,0,0,1-6.34-7.17,18.34,18.34,0,0,1-2.76-8.67,21.36,21.36,0,0,1,1.65-9.14c2.42-5.84,7.5-10.32,13-13.92s11.74-6.59,17.7-10.08a59.12,59.12,0,0,0,8.63-5.94,23.8,23.8,0,0,0,6.57-8.51,20.07,20.07,0,0,0,1.36-10.69,35.68,35.68,0,0,0-3.06-10.09c-2.87-6.4-7-11.89-10.37-17.75a48.6,48.6,0,0,1-4.2-9.1c-.28-.79-.45-1.6-.68-2.4a22.62,22.62,0,0,1-.42-2.44l-.23-2.47.09-2.47a23.09,23.09,0,0,1,3-9.38,32.08,32.08,0,0,1,6.37-7.73,51.27,51.27,0,0,1,17.59-9.87.23.23,0,0,0-.14-.44Z" transform="translate(-24.3 -109.03)"/><path class="cls-7" d="M549.47,425.48h0c-.94.37-1.87.78-2.81,1.12a23.34,23.34,0,0,1-2.89.78,15.91,15.91,0,0,1-5.87.23,31.66,31.66,0,0,1-5.79-1.45l-5.81-1.91a82.28,82.28,0,0,0-12-2.79c-2-.37-4.09-.53-6.14-.79a17.23,17.23,0,0,0-6.63.58,16.34,16.34,0,0,0-5.93,3.2,24.4,24.4,0,0,0-4.38,4.9,60.67,60.67,0,0,0-5.77,11.2c-1.6,3.79-2.93,7.63-4.72,11.08a58,58,0,0,1-6.22,10,46.27,46.27,0,0,1-8.07,8.29,30.06,30.06,0,0,1-10,5.23,27.13,27.13,0,0,1-11.05,1l-2.79-.45-2.73-.79a39,39,0,0,1-5.42-2.09c-7.16-3.26-13.82-8-21.35-11.69a51.15,51.15,0,0,0-11.95-4.24,27.68,27.68,0,0,0-19.07,2.22,37.55,37.55,0,0,0-5.43,3.45,65.82,65.82,0,0,0-9,8.71c-1.36,1.55-2.68,3.12-4,4.68l-2,2.33-2,2.21a53.55,53.55,0,0,1-4.22,4.17c-.7.7-1.53,1.23-2.29,1.86a18.83,18.83,0,0,1-2.38,1.71,28.46,28.46,0,0,1-10.65,4.46,29.06,29.06,0,0,1-11.56-.24,48.67,48.67,0,0,1-11.18-4c-3.61-1.74-7.12-3.74-10.58-5.85-6.92-4.2-13.7-8.76-20.9-12.7a85.2,85.2,0,0,0-11.18-5.17,46.8,46.8,0,0,0-12-2.9,38.68,38.68,0,0,0-12.33.67,49.33,49.33,0,0,0-11.62,4.06,51.47,51.47,0,0,0-10.25,6.75,48.93,48.93,0,0,0-8.22,9.09.23.23,0,0,0,.05.32.24.24,0,0,0,.33-.06,48.75,48.75,0,0,1,8.29-8.81,49.82,49.82,0,0,1,10.21-6.45c7.28-3.39,15.45-5.22,23.39-4.18a45.34,45.34,0,0,1,11.59,3A84.32,84.32,0,0,1,285,471.47c7,4,13.67,8.68,20.58,13.06a122.24,122.24,0,0,0,10.7,6.11A50.55,50.55,0,0,0,328,495a31.91,31.91,0,0,0,12.66.43,31.19,31.19,0,0,0,11.79-4.72,22.15,22.15,0,0,0,2.59-1.8c.82-.66,1.72-1.23,2.48-1.95a57.83,57.83,0,0,0,4.51-4.34l2.13-2.29,2-2.32c1.33-1.54,2.65-3.06,4-4.55a61.74,61.74,0,0,1,8.63-8.13,33.64,33.64,0,0,1,4.9-3,27,27,0,0,1,5.33-1.88,26.22,26.22,0,0,1,11.28.26,47.31,47.31,0,0,1,10.93,4.11c7,3.58,13.64,8.48,21.25,12.14a46.68,46.68,0,0,0,5.93,2.37l3.12.92,3.24.56a31.08,31.08,0,0,0,13.07-1,35,35,0,0,0,11.48-6.13,50.83,50.83,0,0,0,8.86-9.22,61.77,61.77,0,0,0,6.46-10.85c1.85-3.84,3.14-7.74,4.59-11.48a56.35,56.35,0,0,1,5-10.65c2.07-3.19,4.76-5.93,8.19-7.08a14,14,0,0,1,5.43-.71c2,.16,4,.23,6,.5a82.52,82.52,0,0,1,11.83,2.16l5.91,1.53a33.49,33.49,0,0,0,6.13,1.12,17,17,0,0,0,6.23-.64,24.74,24.74,0,0,0,2.92-1.05c.94-.42,1.85-.91,2.77-1.36a.24.24,0,0,0,.11-.3A.22.22,0,0,0,549.47,425.48Z" transform="translate(-24.3 -109.03)"/><path class="cls-7" d="M236.8,353c4-1.33,7.93-2.64,11.86-4.09a78.84,78.84,0,0,0,11.54-5.19,32.56,32.56,0,0,0,9.83-8.25,31,31,0,0,0,5.45-11.68,56.82,56.82,0,0,0,1.35-12.7c0-4.26-.32-8.41-.46-12.56a205.84,205.84,0,0,1,.27-24.85c.7-8.2,2.2-16.37,5.45-23.78a41.75,41.75,0,0,1,15.16-18.22A50.43,50.43,0,0,1,308,226.34a104.43,104.43,0,0,1,11.78-3.27,166.39,166.39,0,0,1,24.51-3.1c8.28-.59,16.69-.95,25.1-2.13a108.45,108.45,0,0,0,24.72-6.38l3-1.23,1.48-.62,1.43-.72,5.7-2.91,5.45-3.33a56.63,56.63,0,0,0,5.26-3.58c1.69-1.27,3.47-2.45,5.1-3.79l4.88-4c1.66-1.3,3.17-2.78,4.74-4.2s3.12-2.83,4.56-4.38A107.17,107.17,0,0,0,451.57,163a73,73,0,0,0,5.6-11.36,35.85,35.85,0,0,0,2.59-12.36.23.23,0,0,0-.22-.23.22.22,0,0,0-.24.21v0a27.42,27.42,0,0,1-1.21,6c-.29,1-.65,2-1,2.93l-1.18,2.86a70.21,70.21,0,0,1-6.15,10.71,104.92,104.92,0,0,1-16.33,18.51c-1.47,1.45-3.07,2.76-4.65,4.09s-3.09,2.73-4.76,4l-4.91,3.79c-1.63,1.26-3.38,2.34-5.06,3.52-3.32,2.44-6.95,4.34-10.46,6.43l-5.51,2.67-1.38.66-1.42.55-2.85,1.12A103.57,103.57,0,0,1,368.75,213c-8.13,1.16-16.42,1.66-24.78,2.33A170.17,170.17,0,0,0,318.9,219a108.18,108.18,0,0,0-12.26,3.66,54.51,54.51,0,0,0-11.49,6,45,45,0,0,0-9.55,8.83A47.79,47.79,0,0,0,279,248.57c-3.35,8-4.76,16.49-5.36,24.89a205.83,205.83,0,0,0,.07,25.21c.2,4.18.59,8.36.63,12.45a54.26,54.26,0,0,1-1.12,12.16,28.49,28.49,0,0,1-4.85,10.94,30.48,30.48,0,0,1-9.09,7.9c-7.08,4.15-15.08,6.73-22.91,9.58-3.93,1.4-7.87,2.82-11.76,4.35-1.93.85-3.88,1.63-5.78,2.52L216,360l-1.39.73-1.33.86c-3.55,2.2-7.06,4.87-9.1,8.69l-.7,1.44c-.19.5-.3,1-.46,1.54a6.59,6.59,0,0,0-.25,1.59l-.08.8.06.81a10.64,10.64,0,0,0,2.32,5.89.25.25,0,0,0,.33,0,.24.24,0,0,0,0-.33h0a10.05,10.05,0,0,1-2.08-5.62l0-.76.09-.75a6.29,6.29,0,0,1,.26-1.49c.16-.48.27-1,.47-1.44l.69-1.36c2-3.59,5.45-6.15,9-8.23l1.31-.82c.46-.24.93-.46,1.39-.69l2.78-1.39c1.89-.84,3.83-1.58,5.75-2.37C228.9,355.69,232.85,354.35,236.8,353Z" transform="translate(-24.3 -109.03)"/></g><g id="Rainbow"><path class="cls-8" d="M260.67,399.82a17,17,0,0,1,17,16.35h16.89a33.82,33.82,0,0,0-67.62,0h16.77A17,17,0,0,1,260.67,399.82Z" transform="translate(-24.3 -109.03)"/><path class="cls-9" d="M260.67,399.82a17,17,0,0,1,17,16.35h12.5a29.43,29.43,0,0,0-58.84,0h12.38A17,17,0,0,1,260.67,399.82Z" transform="translate(-24.3 -109.03)"/><path class="cls-8" d="M260.67,399.82a17,17,0,0,1,17,16.35H286a25.28,25.28,0,0,0-50.54,0h8.23A17,17,0,0,1,260.67,399.82Z" transform="translate(-24.3 -109.03)"/><path class="cls-9" d="M260.67,399.82a17,17,0,0,1,17,16.35h4.27a21.2,21.2,0,0,0-42.37,0h4.14A17,17,0,0,1,260.67,399.82Z" transform="translate(-24.3 -109.03)"/><circle class="cls-10" cx="199.07" cy="313.14" r="9.73"/><circle class="cls-11" cx="219.88" cy="315.22" r="9.73"/><path class="cls-9" d="M243.76,418.43a7,7,0,1,1-7-7A7,7,0,0,1,243.76,418.43Z" transform="translate(-24.3 -109.03)"/><circle class="cls-9" cx="213.5" cy="319.57" r="10.27"/><path class="cls-9" d="M235.51,433a7,7,0,1,1-7-7A7,7,0,0,1,235.51,433Z" transform="translate(-24.3 -109.03)"/><circle class="cls-11" cx="250.78" cy="313.12" r="9.73"/><circle class="cls-12" cx="271.57" cy="315.24" r="9.73"/><path class="cls-9" d="M295.46,418.43a7,7,0,1,1-7-7A7,7,0,0,1,295.46,418.43Z" transform="translate(-24.3 -109.03)"/><circle class="cls-9" cx="265.2" cy="319.57" r="10.27"/><path class="cls-9" d="M287.21,433a7,7,0,1,1-7-7A7,7,0,0,1,287.21,433Z" transform="translate(-24.3 -109.03)"/></g><g id="Ballons"><path class="cls-8" d="M229.18,225c-6.3,17.72-27.25,38.11-42.26,32.78s-18.39-34.38-12.09-52.1,23.57-27.77,38.58-22.43S235.48,207.3,229.18,225Z" transform="translate(-24.3 -109.03)"/><path class="cls-4" d="M186.92,257.81s2.53,7.78-10.65,16-30.21,17.57-26.92,29.66,15.39,13.73,26.37,6,28-6.59,24.17,3.85-4.94,22,6.59,18.67" transform="translate(-24.3 -109.03)"/><path class="cls-13" d="M220.3,199c0,4.81-3.46,8.72-7.74,8.72s-7.75-3.91-7.75-8.72,3.47-8.71,7.75-8.71S220.3,194.14,220.3,199Z" transform="translate(-24.3 -109.03)"/><path class="cls-8" d="M341.27,339.85c5.18,11.77,4.33,31.73-5.63,36.12s-25.27-8.46-30.45-20.23-1.3-24.86,8.66-29.24S336.09,328.09,341.27,339.85Z" transform="translate(-24.3 -109.03)"/><path class="cls-13" d="M324.63,331.05c2.25,2.4,2.36,6,.23,8s-5.68,1.69-7.93-.7-2.37-6-.24-8S322.37,328.66,324.63,331.05Z" transform="translate(-24.3 -109.03)"/><path class="cls-4" d="M335.64,376c1.46,4.48,3.88,8.28,8.8,9.26,3.25.65,6.71.43,9.77,1.71,9.63,4,.82,11.35-3.81,14.6-5.25,3.68-11.64,6.82-11.14,14.3.56,8.38,12.84,14,20.1,3.35s10-23.44,20.65-22.33,10.05,11.73,16.75,6.7" transform="translate(-24.3 -109.03)"/></g><g id="Bird"><circle class="cls-6" cx="215.18" cy="177.13" r="16.33"/><circle class="cls-5" cx="223.18" cy="168.84" r="2.57"/><polygon class="cls-6" points="240.08 169.21 231.61 167.56 234.41 175.72 240.08 169.21"/><polyline class="cls-4" points="215.07 193.11 215.07 212.73 221.2 212.73"/><polyline class="cls-4" points="210.17 193.11 210.17 212.73 202.81 212.73"/><path class="cls-6" d="M235.64,281.81s-4.47-6.87-10-7.21S209.88,276,212,278s6.52,1.72,6.52,1.72-4.46,4.12-.69,5.15,7.21-1.37,7.21-1.37-1,3.43,1.72,4.12,5.15-4.12,5.15-4.12-.34,4.46,1,4.46,3.78-2.06,3.78-2.06" transform="translate(-24.3 -109.03)"/></g><g id="Rocket"><path class="cls-7" d="M320.94,296.08c.94-1.2,1.47-3.86.27-4.81s-3.67.2-4.61,1.4-1,5-.66,5.3S320,297.28,320.94,296.08Z" transform="translate(-24.3 -109.03)"/><path class="cls-7" d="M348.61,314c2.11-2.68,3.29-8.64.61-10.75s-8.2.43-10.31,3.11-2.19,11.27-1.47,11.84S346.5,316.67,348.61,314Z" transform="translate(-24.3 -109.03)"/><path class="cls-7" d="M366,331.57c.95-1.2,1.47-3.87.27-4.81s-3.66.2-4.61,1.39-1,5.05-.65,5.3S365.07,332.77,366,331.57Z" transform="translate(-24.3 -109.03)"/><path class="cls-14" d="M330.26,280.28l25.92-1.41-9,11.43-19.59-4.52Z" transform="translate(-24.3 -109.03)"/><path class="cls-9" d="M324.62,293.8,318,288.57l19.14-27.19a3.14,3.14,0,0,1,.45-.57c1.93-2,9.51-7.44,12-5.5h0c2.46,1.94-1.07,10.6-2.53,12.94a3.14,3.14,0,0,1-.45.57Z" transform="translate(-24.3 -109.03)"/><path class="cls-14" d="M341.45,257.76l7.61,6c1.2-3.3,2-7.21.48-8.43S344.38,255.82,341.45,257.76Z" transform="translate(-24.3 -109.03)"/><polygon class="cls-14" points="297.7 173.81 293.67 179.54 300.32 184.78 304.94 179.51 297.7 173.81"/><path class="cls-14" d="M375.12,315.6l-4.7-25.52-9,11.43,9,18Z" transform="translate(-24.3 -109.03)"/><path class="cls-9" d="M363.31,324.26,370,329.5l21.94-25a4.81,4.81,0,0,0,.44-.57c1.47-2.34,5-11,2.53-12.94h0c-2.46-1.94-10.05,3.52-12,5.5a3.45,3.45,0,0,0-.45.56Z" transform="translate(-24.3 -109.03)"/><polygon class="cls-14" points="350.28 215.2 345.65 220.47 339 215.24 343.04 209.5 350.28 215.2"/><path class="cls-14" d="M386.78,293.45l7.62,6c1.19-3.31,2-7.22.47-8.44S389.71,291.51,386.78,293.45Z" transform="translate(-24.3 -109.03)"/><path class="cls-9" d="M360,306.78l-17.41-13.71,40.78-59.36a8.81,8.81,0,0,1,1.18-1.48c5.06-5.17,24.92-19.48,31.38-14.4h0c6.46,5.08-2.8,27.76-6.63,33.89a10.45,10.45,0,0,1-1.16,1.49Z" transform="translate(-24.3 -109.03)"/><path class="cls-15" d="M372.94,272.48h0c-4.2-3.31-5.69-8.41-3.34-11.4l17.76-22.55c2.35-3,7.66-2.74,11.86.57h0c4.2,3.31,5.7,8.41,3.35,11.4l-17.76,22.55C382.46,276,377.15,275.79,372.94,272.48Z" transform="translate(-24.3 -109.03)"/><polygon class="cls-14" points="326.71 203.81 314.48 194.18 318.57 183.68 335.98 197.39 326.71 203.81"/><path class="cls-5" d="M397.63,252a6.76,6.76,0,1,1-1.13-9.49A6.75,6.75,0,0,1,397.63,252Z" transform="translate(-24.3 -109.03)"/><path class="cls-15" d="M397.13,252.65a6.76,6.76,0,1,1-1.13-9.5A6.77,6.77,0,0,1,397.13,252.65Z" transform="translate(-24.3 -109.03)"/><path class="cls-5" d="M395.43,243.87a6.35,6.35,0,0,1,1.21,8.71c.05-.06.11-.12.16-.19a6.35,6.35,0,0,0-10-7.86l-.14.21A6.35,6.35,0,0,1,395.43,243.87Z" transform="translate(-24.3 -109.03)"/><path class="cls-9" d="M395.78,251.59a5,5,0,1,1-.84-7.09A5.05,5.05,0,0,1,395.78,251.59Z" transform="translate(-24.3 -109.03)"/><path class="cls-5" d="M389,252.06a5.05,5.05,0,0,0,6.94-.67l-.14.2a5,5,0,1,1-7.93-6.25l.15-.18A5,5,0,0,0,389,252.06Z" transform="translate(-24.3 -109.03)"/><path class="cls-5" d="M387.3,265.13a6.76,6.76,0,1,1-1.13-9.5A6.77,6.77,0,0,1,387.3,265.13Z" transform="translate(-24.3 -109.03)"/><path class="cls-15" d="M386.79,265.77a6.76,6.76,0,1,1-1.13-9.49A6.75,6.75,0,0,1,386.79,265.77Z" transform="translate(-24.3 -109.03)"/><path class="cls-5" d="M385.09,257a6.34,6.34,0,0,1,1.21,8.71l.17-.19a6.35,6.35,0,0,0-10-7.86l-.15.21A6.34,6.34,0,0,1,385.09,257Z" transform="translate(-24.3 -109.03)"/><path class="cls-9" d="M385.45,264.71a5.05,5.05,0,1,1-.85-7.09A5,5,0,0,1,385.45,264.71Z" transform="translate(-24.3 -109.03)"/><path class="cls-5" d="M378.65,265.18a5,5,0,0,0,6.93-.66,2.14,2.14,0,0,1-.13.19,5.05,5.05,0,0,1-7.94-6.25l.16-.17A5,5,0,0,0,378.65,265.18Z" transform="translate(-24.3 -109.03)"/><path class="cls-14" d="M398.43,221.94,416,235.81c2.44-7.67,3.64-15.62.18-18.35h0C412.76,214.74,405.31,217.78,398.43,221.94Z" transform="translate(-24.3 -109.03)"/><line class="cls-16" x1="329.98" y1="163.15" x2="329.73" y2="163.51"/><line class="cls-16" x1="329.91" y1="163.25" x2="329.73" y2="163.51"/><line class="cls-16" x1="329.81" y1="163.4" x2="329.73" y2="163.51"/></g><g id="Sun"><polygon class="cls-14" points="469.56 88.47 476.49 80.04 465.93 77.3 466.58 66.41 456.43 70.39 450.55 61.2 444.67 70.39 434.51 66.41 435.16 77.3 424.6 80.04 431.53 88.47 424.6 96.9 435.16 99.65 434.51 110.54 444.67 106.56 450.55 115.75 456.43 106.56 466.58 110.54 465.93 99.65 476.49 96.9 469.56 88.47"/><circle class="cls-17" cx="474.83" cy="197.51" r="15.21" transform="translate(-56.87 4.7) rotate(-13.21)"/></g><g id="Spaceship"><ellipse class="cls-6" cx="378.34" cy="44.93" rx="13.69" ry="11.41"/><ellipse class="cls-8" cx="378.34" cy="43.69" rx="29.34" ry="10.11"/><path class="cls-6" d="M416.33,145.54c0,6.31-6.13,7.18-13.69,7.18S389,151.85,389,145.54s6.13-11.41,13.69-11.41S416.33,139.24,416.33,145.54Z" transform="translate(-24.3 -109.03)"/><path class="cls-6" d="M386.5,154.74c0,1-1.4,1.88-3.12,1.88s-3.13-.84-3.13-1.88,1.4-1.87,3.13-1.87S386.5,153.71,386.5,154.74Z" transform="translate(-24.3 -109.03)"/><path class="cls-6" d="M400.74,158c0,1-1.56,1.88-3.5,1.88s-3.49-.84-3.49-1.88,1.56-1.87,3.49-1.87S400.74,157,400.74,158Z" transform="translate(-24.3 -109.03)"/><path class="cls-6" d="M418.74,155.87c0,1-1.51,1.75-3.38,1.75s-3.37-.79-3.37-1.75,1.51-1.75,3.37-1.75S418.74,154.9,418.74,155.87Z" transform="translate(-24.3 -109.03)"/><path class="cls-6" d="M426.49,149.75c0,.62-.95,1.12-2.13,1.12s-2.12-.5-2.12-1.12.95-1.13,2.12-1.13S426.49,149.12,426.49,149.75Z" transform="translate(-24.3 -109.03)"/><path class="cls-6" d="M385.75,148.37c0,.62-.95,1.13-2.13,1.13s-2.12-.51-2.12-1.13.95-1.12,2.12-1.12S385.75,147.75,385.75,148.37Z" transform="translate(-24.3 -109.03)"/></g><g id="Moon"><circle class="cls-6" cx="275.9" cy="73.34" r="22.96"/><path class="cls-6" d="M289.83,177.91a2.38,2.38,0,1,1-2.38-2.38A2.38,2.38,0,0,1,289.83,177.91Z" transform="translate(-24.3 -109.03)"/><path class="cls-6" d="M307.56,171.26a4.28,4.28,0,1,1-4.28-4.28A4.28,4.28,0,0,1,307.56,171.26Z" transform="translate(-24.3 -109.03)"/><path class="cls-6" d="M298.37,191.52a2.38,2.38,0,1,1-2.37-2.37A2.38,2.38,0,0,1,298.37,191.52Z" transform="translate(-24.3 -109.03)"/><circle class="cls-6" cx="293.7" cy="71.26" r="2.53"/><path class="cls-6" d="M311.67,197.06a1.58,1.58,0,1,1-1.58-1.58A1.59,1.59,0,0,1,311.67,197.06Z" transform="translate(-24.3 -109.03)"/></g><g id="Planet"><circle class="cls-18" cx="469.13" cy="282.15" r="28.66" transform="translate(-37.38 -86.04) rotate(-2.77)"/><path class="cls-14" d="M467.41,310.79l30.35-27.07a28.47,28.47,0,0,0-1.11-9.58c-.13-.46-.27-.9-.42-1.34l-31.7,37.67A27.57,27.57,0,0,0,467.41,310.79Z" transform="translate(-24.3 -109.03)"/><path class="cls-14" d="M440.48,283c3.56-6.49,10.11-18.23,14.18-25.52A28.72,28.72,0,0,0,440.48,283Z" transform="translate(-24.3 -109.03)"/><path class="cls-14" d="M458.87,290.78l-10.28,11.38a27.86,27.86,0,0,0,3.69,3.19Z" transform="translate(-24.3 -109.03)"/><path class="cls-14" d="M494.7,269.22a28.21,28.21,0,0,0-3.05-4.79l-15.73,15.46Z" transform="translate(-24.3 -109.03)"/><path class="cls-14" d="M477,254.61a29.06,29.06,0,0,0-6.1-1.05L444.58,297c.2.33.4.66.61,1Z" transform="translate(-24.3 -109.03)"/><path class="cls-6" d="M492.21,265.18a29.44,29.44,0,0,1,1.7,2.58c3.78.18,6.2,1,6.65,2.54,1.2,4.12-12.37,11.7-30.31,16.94s-33.45,6.16-34.66,2c-.47-1.63,1.38-3.81,4.91-6.17a27.39,27.39,0,0,1,.06-3c-8.51,4.59-13.44,9.23-12.48,12.54,1.71,5.83,21.13,5.29,43.39-1.21s38.92-16.51,37.22-22.35C507.75,265.87,501.42,264.59,492.21,265.18Z" transform="translate(-24.3 -109.03)"/></g><g id="Ship"><path class="cls-6" d="M437.23,392.89s19.1-21,28.48-24.1,21.5,4.6,32.47,11.45,19.38,7.92,11.52,11.7-19.29-2.06-19.29-2.06,5.72,6.28,1.75,6.92-13.1-6.9-13.1-6.9,6.31,5.65-.29,6S465,390.53,465,390.53s1.42,4.94-1.07,5-10.79-5.23-10.79-5.23,1.74,3.55-2.83,4.84S437.23,392.89,437.23,392.89Z" transform="translate(-24.3 -109.03)"/><path class="cls-6" d="M480.37,377.63s-.47,4.38-4.16,5.76c-3.14,1.17-9.78-4.77-9.78-4.77s2.67,4.9-.33,4.76a67.26,67.26,0,0,1-8-1.22s2.44,2-.24,3.88-9.19,1.33-9.19,1.33" transform="translate(-24.3 -109.03)"/><rect class="cls-19" x="437.91" y="350.53" width="31.16" height="13.01" transform="matrix(0.35, -0.94, 0.94, 0.35, -64.34, 547.29)"/><rect class="cls-20" x="454.05" y="339.34" width="7.26" height="13.01" transform="translate(-51.14 543.95) rotate(-69.45)"/><path class="cls-6" d="M463.81,391.28l2.74-6.14a3.16,3.16,0,0,0-1.78-4.25l-2-.76a3.15,3.15,0,0,1-1.85-4.07l.54-1.46a3.17,3.17,0,0,0-1.85-4.08l-21.77-8.15a3.15,3.15,0,0,0-4.07,1.85l-5.24,14a3.16,3.16,0,0,0,1.88,4.09L459.84,393A3.16,3.16,0,0,0,463.81,391.28Z" transform="translate(-24.3 -109.03)"/><path class="cls-8" d="M464.63,397.74l-10.27,10.95a12.09,12.09,0,0,1-13.06,3.05l-24.88-9.33a12.1,12.1,0,0,1-7.84-11.3l0-17.35Z" transform="translate(-24.3 -109.03)"/><path class="cls-6" d="M406.44,375.87l58.34,21.87a4.53,4.53,0,0,0,5.84-2.66h0a4.53,4.53,0,0,0-2.65-5.83l-58.35-21.88a4.53,4.53,0,0,0-5.84,2.66h0A4.54,4.54,0,0,0,406.44,375.87Z" transform="translate(-24.3 -109.03)"/><path class="cls-21" d="M444.15,373.58a3.94,3.94,0,1,1,2.31,5.07A3.93,3.93,0,0,1,444.15,373.58Z" transform="translate(-24.3 -109.03)"/><path class="cls-6" d="M437.59,395.55s28.21-3.33,37.3.5,13.2,17.59,17,30,9.42,18.69,1,16.39-13.21-14.22-13.21-14.22.19,8.49-3.23,6.37-5.35-13.8-5.35-13.8,1.06,8.4-4.16,4.34S460.07,412,460.07,412s-2.17,4.66-4.1,3.09-4.71-11-4.71-11-1,3.83-5.31,1.8S437.59,395.55,437.59,395.55Z" transform="translate(-24.3 -109.03)"/><path class="cls-6" d="M480.15,412.35s-3.23,3-6.92,1.61c-3.13-1.17-4.25-10-4.25-10s-1.2,5.44-3.37,3.37a66.31,66.31,0,0,1-5.26-6.19s.51,3.14-2.72,2.77-7.8-5-7.8-5" transform="translate(-24.3 -109.03)"/><path class="cls-4" d="M457.39,332.63a4.73,4.73,0,1,0,6.09-2.77A4.74,4.74,0,0,0,457.39,332.63Z" transform="translate(-24.3 -109.03)"/><path class="cls-4" d="M469.44,330.83a6.71,6.71,0,1,0,8.63-3.92A6.71,6.71,0,0,0,469.44,330.83Z" transform="translate(-24.3 -109.03)"/><path class="cls-4" d="M486.43,340.57a12.22,12.22,0,1,0,15.74-7.16A12.23,12.23,0,0,0,486.43,340.57Z" transform="translate(-24.3 -109.03)"/><path class="cls-4" d="M517,352.25a8.08,8.08,0,1,0,10.41-4.74A8.07,8.07,0,0,0,517,352.25Z" transform="translate(-24.3 -109.03)"/></g><g id="Stars"><polygon class="cls-14" points="244.41 125.81 241.19 130.23 243 135.39 237.81 133.69 233.46 137.01 233.47 131.54 228.97 128.43 234.17 126.75 235.74 121.51 238.95 125.94 244.41 125.81"/><polygon class="cls-8" points="344.44 63.33 339.45 65.56 338.46 70.94 334.8 66.88 329.38 67.6 332.1 62.86 329.74 57.93 335.09 59.06 339.05 55.29 339.63 60.73 344.44 63.33"/><polygon class="cls-8" points="496.3 128.88 491.3 131.11 490.31 136.49 486.65 132.43 481.23 133.15 483.95 128.41 481.6 123.48 486.94 124.61 490.91 120.84 491.49 126.28 496.3 128.88"/><polygon class="cls-8" points="217.76 47.82 212.77 50.05 211.78 55.43 208.11 51.37 202.69 52.09 205.42 47.35 203.06 42.42 208.41 43.54 212.37 39.78 212.95 45.21 217.76 47.82"/><polygon class="cls-8" points="370.31 244.37 365.32 246.6 364.33 251.98 360.66 247.93 355.24 248.64 357.97 243.9 355.61 238.97 360.96 240.1 364.92 236.33 365.5 241.77 370.31 244.37"/><polygon class="cls-14" points="407.77 208.34 402.78 210.57 401.79 215.95 398.12 211.89 392.7 212.61 395.43 207.87 393.07 202.94 398.42 204.07 402.38 200.3 402.96 205.74 407.77 208.34"/><polygon class="cls-14" points="266.11 240.89 260.93 247.72 263.62 255.85 255.53 253.04 248.62 258.11 248.8 249.54 241.84 244.54 250.04 242.06 252.65 233.9 257.54 240.93 266.11 240.89"/></g><g id="Character"><path class="cls-22" d="M92.07,435s8.23,8.24,7.32,9.76-7.93-7-22.88,4.28-5.19,26.85,1.22,30.51,0,6.1-.31,15.25,5.19,18.92,18,20.45,19.23-7.33,24.72-11.29,12.51,2.44,27.77,3.66,14-8.24,24.71-13.12,24.41-4.58,26.55-13.73-6.41-14-2.44-20.75,10.07-15.87,6.71-23.19-7.93-2.75-11-8.54,3.66-6.72-1.53-13.43-14-4.58-14-4.58,4,16.78-7.93,25-29.9,9.16-38.44,3.36-15.87-11.9-15.87-11.9Z" transform="translate(-24.3 -109.03)"/><path class="cls-22" d="M139,454.32S105.57,468,96.27,476.76,91.61,491,92.71,492.63s12.31,45.7,15.05,52.26,3.28,11,12.31,14.23l-9.85,23.54s-39.68-8.21-49.53,5.2S55.49,616,64.8,622.61s79.63,24.63,79.63,24.63,101.79-22.72,118.21-27.64S285.9,597.43,282.07,590s-14.5-9.57-26-9.57-35.85.54-35.85.54l-7.12-32s10.68-83.46,8.76-91.4-9.58-8.48-19.16-10.13-27.63-2.73-27.63-2.73Z" transform="translate(-24.3 -109.03)"/><path class="cls-8" d="M167.13,596.42l3.66,10.68s19.83-7,30.51-12.81a138,138,0,0,0,19.07-13.07h-.14l-7.12-32s10.67-83.46,8.76-91.4-9.58-8.48-19.16-10.12S175.08,445,175.08,445L139,454.53S105.57,468.21,96.27,477s-4.66,14.23-3.56,15.87,12.31,45.7,15.05,52.27,3.28,10.94,12.31,14.22l-9.85,23.54s4.73,5.92,16.63,10.2,36.92,14,36.92,14Z" transform="translate(-24.3 -109.03)"/><path class="cls-4" d="M179.82,553.64S158,548.87,148,541.29" transform="translate(-24.3 -109.03)"/><path class="cls-4" d="M151.24,549.52a145,145,0,0,0,16.89,5" transform="translate(-24.3 -109.03)"/><path class="cls-6" d="M139.77,446.59s-6.56-.27-7.11,17,6.84,28.73,9.85,27.64,7.39-10.4,10.4-10.68,6.84,1.92,6.84,1.92-9.85-34.21-13.14-37.22S139.77,446.59,139.77,446.59Z" transform="translate(-24.3 -109.03)"/><path class="cls-6" d="M163.31,481.62s8.76-7.66,10.94-6.84,12.59,11.22,13.14,7.66-5.75-36.4-9.85-39.95-7.94.27-7.94.27Z" transform="translate(-24.3 -109.03)"/><path class="cls-23" d="M172.89,441.94s-6,32.56-9.58,39.68-9.85-.82-14.78-12.86-8.76-22.17-8.76-22.17Z" transform="translate(-24.3 -109.03)"/><polygon class="cls-22" points="141.87 341.48 122.87 353.74 115.47 337.57 141.87 341.48"/><path class="cls-22" d="M114.64,363.3s1.53-5.49,5.19-6.1a39.23,39.23,0,0,1,5.8-.61s-8.24-10.07,1.52-14,18.31-2.44,30.82,5.8,0,18.31-.61,20.14-15.25.61-25.32,4.58S117.39,381,117.39,381,111.59,374.9,114.64,363.3Z" transform="translate(-24.3 -109.03)"/><path class="cls-24" d="M157.09,452.16c-13.46,0-29.89-8.75-33-10.5-8.06-4.48-14-22.76-16.84-33.25-1.83-6.8-3.86-19.56,3.16-28.55,7.58-9.72,21.38-13.27,31.77-13.35h.32c9.58,0,17.22,3.21,21.51,9,3,4,4.83,8.93,6.62,13.65s3.7,9.77,6.8,14a31.54,31.54,0,0,1,5.05,21.31c-1.23,9.38-3.63,19.88-16.51,25.91A20.82,20.82,0,0,1,157.09,452.16Z" transform="translate(-24.3 -109.03)"/><path class="cls-5" d="M142.45,366.51c9.38,0,16.84,3.12,21,8.78,2.93,4,4.69,8.61,6.54,13.5s3.74,9.85,6.88,14.17a31,31,0,0,1,4.94,20.88c-1.26,9.63-3.55,19.53-16.16,25.43a20.11,20.11,0,0,1-8.58,1.67c-13.3,0-29.61-8.69-32.74-10.43-5.75-3.19-11.78-15.17-16.55-32.87-4.19-15.59.11-24.25,3-28,7.45-9.55,21-13,31.29-13.11h-.23m.55-1.11h-.33c-11.55.09-24.9,4.16-32.24,13.58-6.37,8.17-5.82,19.61-3.27,29.09,3.81,14.14,9.79,29.55,17.13,33.63,5.8,3.22,20.94,10.58,33.34,10.58a21.41,21.41,0,0,0,9.1-1.78c12.78-6,15.5-16.05,16.86-26.38a32,32,0,0,0-5.17-21.76c-6.1-8.4-7.36-19.46-13.42-27.68-4.82-6.54-13.14-9.28-22-9.28Z" transform="translate(-24.3 -109.03)"/><path class="cls-4" d="M155,398.55s4.09,5.17,6.26,5.17a3.44,3.44,0,0,1,3.26,4.89c-1.08,3-4.62,3.54-4.62,3.54" transform="translate(-24.3 -109.03)"/><path class="cls-4" d="M169.17,415.41s-4.62,10.07-15.23,9" transform="translate(-24.3 -109.03)"/><path class="cls-4" d="M133,411.88s2.72-7.89,10.88-7.62" transform="translate(-24.3 -109.03)"/><path class="cls-4" d="M159.65,393.65s3-6,9.25-3.53" transform="translate(-24.3 -109.03)"/><path class="cls-5" d="M143.18,393.75c1.72,2.76,7,12.12,3.67,17.95a12.91,12.91,0,0,1-11.71,6.92,16.41,16.41,0,0,1-4.53-.64c-4.39-1.26-8.27-8-9.3-10,3.78-7.09,18.12-12.84,21.87-14.24m.5-1.48S124,399,119.94,408c0,0,4.62,9.52,10.33,11.15a18.07,18.07,0,0,0,4.87.69,14.19,14.19,0,0,0,12.78-7.54c4.35-7.62-4.24-20-4.24-20Z" transform="translate(-24.3 -109.03)"/><path class="cls-5" d="M173.09,377c1.41,2.88,5.49,12.25,2,17.63-3.17,4.85-7.32,5.87-10.25,5.87a14.44,14.44,0,0,1-5.15-1c-3.56-1.39-6.65-7.51-7.8-10.35,4-6.54,17.5-11,21.22-12.16m.63-1.47S155,380.6,150.52,389c0,0,3.55,9.59,8.71,11.59a15.62,15.62,0,0,0,5.59,1.08c4,0,8.19-1.7,11.28-6.43,4.61-7.07-2.38-19.77-2.38-19.77Z" transform="translate(-24.3 -109.03)"/><path class="cls-4" d="M143.68,392.27s3.44-3.59,6.84-3.26" transform="translate(-24.3 -109.03)"/><path class="cls-4" d="M145.73,395.49s2-5.56,6.29-2.93" transform="translate(-24.3 -109.03)"/><line class="cls-4" x1="95.83" y1="299.92" x2="86.76" y2="310.16"/><line class="cls-4" x1="149.41" y1="266.46" x2="143.22" y2="272.27"/><path class="cls-25" d="M126,404.12s.59-9.22,9.07-12.44" transform="translate(-24.3 -109.03)"/><path class="cls-25" d="M152.16,381.59s6.73-3.65,11.85.59" transform="translate(-24.3 -109.03)"/><path class="cls-22" d="M120.75,370s5.79,6.71,1.83,16.47a42.89,42.89,0,0,1-11,15.56s2.14,6.11,1.83,9.16a109.72,109.72,0,0,1-2.44,11l20.14,23.5s-17.39,1.22-30.82-4.27S74.67,412.73,81.08,396,104.57,370,104.57,370s-.3-5.8,5.8-9.77S121.05,361.47,120.75,370Z" transform="translate(-24.3 -109.03)"/><path class="cls-23" d="M114.15,418.25a7.93,7.93,0,0,1,2.93,3.32c1.36,2.53,15,21.62,17.34,23s17,9,18.7,14c1.41,4.08-3.12,52.47-4.94,71.09a92.51,92.51,0,0,1-3,15.91c-1.85,6.64-4.48,15-6.52,17-3.5,3.5-12.17,3.55-18.7.78-10.87-4.61-12.66-16-12.08-20.46s29.81-70.14,30.39-72.28a14.13,14.13,0,0,0,.39-5.45c-.19-.59-12.66-7.6-18.12-11.89s-7.4-6.62-8.57-8.38-5.84-23-5.06-24.15l.78-1.17s.19-2.73,1.75-2.92S114.15,418.25,114.15,418.25Z" transform="translate(-24.3 -109.03)"/><path class="cls-8" d="M145,546.48c-18,1.08-28.56-6.11-34-11.82a66.6,66.6,0,0,0-3,8.28c-.59,4.48,1.2,15.85,12.08,20.46,6.53,2.77,15.19,2.73,18.7-.78C140.65,560.67,143.14,553,145,546.48Z" transform="translate(-24.3 -109.03)"/><path class="cls-4" d="M112.7,417.75a53.87,53.87,0,0,0,7.21,18.14l3.84,5.81" transform="translate(-24.3 -109.03)"/><path class="cls-4" d="M108.28,417.28s2.32,10.23,4.07,15,6.74,12.09,6.74,12.09" transform="translate(-24.3 -109.03)"/><path class="cls-4" d="M107.72,419.62s3.35,16.85,4.16,19.87,4.65,6.63,4.65,6.63" transform="translate(-24.3 -109.03)"/><path class="cls-23" d="M122.36,637.34s-11.65,3.13-17.34,1.14S76.89,628.82,65,631.09s-10.8,18.19,1.14,22.73,34.38,3.13,41.76,2,19-3.41,19-3.41S121.5,640.75,122.36,637.34Z" transform="translate(-24.3 -109.03)"/><path class="cls-8" d="M65,631.09c-11.93,2.28-10.8,18.19,1.14,22.73s34.38,3.13,41.76,2c2.11-.32,4.55-.74,7-1.16a70.52,70.52,0,0,1-13.79-2.25s3.41-2.27,5.39-7.95c1.43-4.07.09-5.37-.79-5.78l-.63-.19C99.34,636.49,76.89,628.82,65,631.09Z" transform="translate(-24.3 -109.03)"/><path class="cls-22" d="M95.36,589l116.79,46s.85,4.26-.86,11.08-4,8.24-4,8.24l-62.89-6.94s-46.79-12.1-53.61-14.65-24.44-6.25-31.26-12.22-8.24-21-2.56-28.41,9.38-9.38,14.78-9.95" transform="translate(-24.3 -109.03)"/><path class="cls-23" d="M212,637.34s11.65,3.13,17.34,1.14,28.13-9.66,40.06-7.39,10.8,18.19-1.14,22.73-34.38,3.13-41.76,2-19-3.41-19-3.41S212.84,640.75,212,637.34Z" transform="translate(-24.3 -109.03)"/><path class="cls-8" d="M269.38,631.09c11.93,2.28,10.8,18.19-1.14,22.73s-34.38,3.13-41.76,2c-2.11-.32-4.55-.74-7-1.16a70.52,70.52,0,0,0,13.79-2.25s-3.4-2.27-5.39-7.95c-1.43-4.07-.08-5.37.79-5.78l.63-.19C235,636.49,257.45,628.82,269.38,631.09Z" transform="translate(-24.3 -109.03)"/><path class="cls-22" d="M243.68,587.05S205,604.1,187.42,610.92s-60.23,24.15-63.08,24.72-4,4.55-2.84,9.66,5.4,9.09,7.39,9.09,96.89-14.77,108-17.33,39.49-13.64,43.75-18.19,8.53-11.36,7.11-21.31S281.48,580,271,580.23s-22.45,3.41-22.45,3.41" transform="translate(-24.3 -109.03)"/><path class="cls-6" d="M202.26,632.85a18.63,18.63,0,0,1,2.45-9.47H126.06a9.48,9.48,0,0,0-9.62,9,9.19,9.19,0,0,0,9.19,9.43h78.79A18.79,18.79,0,0,1,202.26,632.85Z" transform="translate(-24.3 -109.03)"/><path class="cls-26" d="M205,644.23h-79.5a11.18,11.18,0,0,1-11-8.43,11.06,11.06,0,0,1,10.74-13.64h80s1.64.38,1.64,1.29-1.64,2.38-1.64,2.38H125.35a7.57,7.57,0,0,0-7.62,6.45,7.36,7.36,0,0,0,7.3,8.27H205s1.64.62,1.64,1.52S205,644.23,205,644.23Z" transform="translate(-24.3 -109.03)"/><path class="cls-6" d="M194.19,623.38a19.51,19.51,0,0,0-.29,18.39h11a19.51,19.51,0,0,1,.29-18.39Z" transform="translate(-24.3 -109.03)"/><path class="cls-6" d="M204.52,654.92a18.63,18.63,0,0,1,2.45-9.47H128.32a9.48,9.48,0,0,0-9.62,9,9.18,9.18,0,0,0,9.19,9.43h78.79A18.79,18.79,0,0,1,204.52,654.92Z" transform="translate(-24.3 -109.03)"/><path class="cls-8" d="M207.23,665.07H127.74a11.19,11.19,0,0,1-11-8.42A11.06,11.06,0,0,1,127.49,643h80s1.64,1.27,1.64,2.18-1.64,1.5-1.64,1.5H127.6a7.56,7.56,0,0,0-7.61,6.45,7.36,7.36,0,0,0,7.3,8.26h79.94s1.65,1.5,1.65,2.41S207.23,665.07,207.23,665.07Z" transform="translate(-24.3 -109.03)"/><path class="cls-6" d="M196.45,645.45a19.51,19.51,0,0,0-.29,18.39h11a19.44,19.44,0,0,1,.29-18.39Z" transform="translate(-24.3 -109.03)"/><path class="cls-8" d="M206.54,451.52c5.2-.82,29.83,2.19,32,7.11s-2.74,34.21-4.92,46.25-22.17,66.49-23.26,69.78-6.85,3.83-24.08,2.73-78.54-2.46-78.54-2.46-4.38,10.4-6.57,12.32-7.66,6.56-7.66,6.56,0,6,1.92,6.57,2.73.82,1.91,3.28a4.61,4.61,0,0,1-3,3l-2.19.82c-2.19.83-3,0-3,0s-2.19-.27-2.74-1.36-4.37-9.58-3.28-12.59,12-23.53,13.41-25.18,23.46-5,23.46-5L188.76,550a2.92,2.92,0,0,1,1.09-2.74l1.37-.82s9.31-43.51,11.5-52,7.93-17.79,7.93-17.79" transform="translate(-24.3 -109.03)"/><path class="cls-23" d="M88.91,581.68s-4.55,7.69-7,8.91-7.16,3-6.46,4.54,2.1,2.63,4,1.93,7-2.28,7-2.28l6.12-15.2Z" transform="translate(-24.3 -109.03)"/><path class="cls-4" d="M190.63,550.39s4,1.22,5.07,7.69" transform="translate(-24.3 -109.03)"/><path class="cls-4" d="M192.38,548.82s4.71-.18,7.69,7" transform="translate(-24.3 -109.03)"/><path class="cls-23" d="M96.54,568.36c-1.37,1.65-12.32,22.17-13.41,25.18s2.74,11.49,3.28,12.59,2.74,1.37,2.74,1.37.82.82,3,0l2.19-.82a4.64,4.64,0,0,0,3-3c.82-2.47,0-2.74-1.92-3.29s-1.91-6.56-1.91-6.56,5.47-4.66,7.66-6.57,6.57-12.32,6.57-12.32,17.6.4,36.59.93a27.74,27.74,0,0,0-2.68-16.67L120,563.4S97.91,566.72,96.54,568.36Z" transform="translate(-24.3 -109.03)"/><path class="cls-4" d="M94.35,606.67s-3.72-2.83-4.16-3.28-2.09-7.89-1.79-9.23" transform="translate(-24.3 -109.03)"/><path class="cls-4" d="M85,593.27s1.93,10.27,2.08,11a17,17,0,0,0,2.09,3.21" transform="translate(-24.3 -109.03)"/><path class="cls-23" d="M198.15,597.63H121.67v-2.25l2.45.15V576.79h-2.45v-1.23h76.48a11,11,0,0,1,11,11h0A11,11,0,0,1,198.15,597.63Z" transform="translate(-24.3 -109.03)"/><path class="cls-6" d="M194.07,585.92c0,5.12-4.82,9.26-10.77,9.26H124.12V576.79l59.18-.12C189.25,576.67,194.07,580.81,194.07,585.92Z" transform="translate(-24.3 -109.03)"/><path class="cls-26" d="M187.88,578v16.53c3.58-1.48,6.06-4.62,6.06-8.27S191.46,579.47,187.88,578Z" transform="translate(-24.3 -109.03)"/><path class="cls-26" d="M200.51,623.38h-85v-2.69l2.45.15V601.31h-2.45v-2.45h85a12.26,12.26,0,0,1,12.26,12.26h0A12.26,12.26,0,0,1,200.51,623.38Z" transform="translate(-24.3 -109.03)"/><path class="cls-6" d="M192.61,611.06c0,5.45-5.15,9.87-11.49,9.87H118V601.31l63.13-.13C187.46,601.18,192.61,605.6,192.61,611.06Z" transform="translate(-24.3 -109.03)"/><path class="cls-26" d="M186.65,602.12v17.64c3.83-1.57,6.48-4.93,6.48-8.82S190.48,603.7,186.65,602.12Z" transform="translate(-24.3 -109.03)"/></g></svg>