<svg id="Livello_1" data-name="Livello 1" xmlns="http://www.w3.org/2000/svg" viewBox="0 0 751.95 555.87"><defs><style>.cls-1{fill:#e6e6e6;}.cls-2{fill:#fff;}.cls-3{fill:#f2f2f2;}.cls-4{fill:#ffb8b8;}.cls-5{fill:#ffb6b6;}.cls-6{fill:#2f2e41;}.cls-7{fill:#2f4141;}.cls-8{fill:#3f6356;}.cls-9{fill:#cacaca;}.cls-10{fill:#3f3d56;}.cls-11{fill:#36a970;}.cls-12{fill:#d1d3d4;}</style></defs><path class="cls-1" d="M589.77,561.76H184.83a13.62,13.62,0,0,1-13.61-13.61V218.43a13.63,13.63,0,0,1,13.61-13.61H589.77a13.62,13.62,0,0,1,13.6,13.61V548.15A13.61,13.61,0,0,1,589.77,561.76Z" transform="translate(-56.02 -154.07)"/><path class="cls-2" d="M194,214.51a13.12,13.12,0,0,0-13.11,13.11V539A13.12,13.12,0,0,0,194,552.08H471.17A122.64,122.64,0,0,0,593.69,429.56V227.62a13.11,13.11,0,0,0-13.1-13.11Z" transform="translate(-56.02 -154.07)"/><path class="cls-1" d="M515.92,354.54H442.5a5.79,5.79,0,0,1-5.78-5.78V312.22a5.8,5.8,0,0,1,5.78-5.78h73.42a5.79,5.79,0,0,1,5.78,5.78c4.54,12.93,5.19,25.22,0,36.54A5.78,5.78,0,0,1,515.92,354.54Z" transform="translate(-56.02 -154.07)"/><path class="cls-2" d="M507.23,351H444.84a4.92,4.92,0,0,1-4.9-4.91V315.05a4.92,4.92,0,0,1,4.9-4.91h62.39a4.91,4.91,0,0,1,4.9,4.91c4.21,11.06,4.89,21.52,0,31.05A4.91,4.91,0,0,1,507.23,351Z" transform="translate(-56.02 -154.07)"/><path class="cls-1" d="M503.86,373.68H454.4a5.49,5.49,0,1,1,0-11h49.48a5.49,5.49,0,0,1,0,11Z" transform="translate(-56.02 -154.07)"/><path class="cls-1" d="M470.61,318.53a2.15,2.15,0,0,0-2.15,2.15v23.26a2.14,2.14,0,0,0,2.14,2.14,2.11,2.11,0,0,0,1.07-.28l20.53-11.7a2.15,2.15,0,0,0,.8-2.93,2.1,2.1,0,0,0-.81-.81l-20.53-11.55A2,2,0,0,0,470.61,318.53Z" transform="translate(-56.02 -154.07)"/><path class="cls-3" d="M770.14,665.43a9.17,9.17,0,0,0-9.79-3.13l-.38.12-3.45,13.45c-.52-2-1.62-6.53-2.32-11l-.06-.37-.34.15a46.85,46.85,0,0,0-10.09,6.08,48.36,48.36,0,0,0-18.08,36.42v.42l.46-.16,9.79-3.51a29.21,29.21,0,0,0,23.58-8.79c4-4.17,6.67-9.54,9.3-14.74.76-1.51,1.55-3.07,2.36-4.57A9.34,9.34,0,0,0,770.14,665.43Z" transform="translate(-56.02 -154.07)"/><path class="cls-4" d="M520,322.21a7.07,7.07,0,0,0,9.52,5.28l29.28,34.06,3.7-12.57-29-31.16A7.14,7.14,0,0,0,520,322.21Z" transform="translate(-56.02 -154.07)"/><polygon class="cls-5" points="581.96 545.24 572.27 545.24 567.66 507.87 581.96 507.87 581.96 545.24"/><path class="cls-6" d="M637.72,696.14l-10.34-4.21-.3-.12-5.71,4.33a12.15,12.15,0,0,0-12.16,12.16v.39h31.24V696.14Z" transform="translate(-56.02 -154.07)"/><polygon class="cls-5" points="651.07 545.24 641.38 545.24 636.77 507.87 651.07 507.87 651.07 545.24"/><path class="cls-6" d="M706.83,696.14l-10.34-4.21-.3-.12-5.71,4.33a12.16,12.16,0,0,0-12.16,12.16v.39h31.24V696.14Z" transform="translate(-56.02 -154.07)"/><path class="cls-7" d="M684.23,476.16s12.15,12.64,12.15,23-3,24.65,0,27.78,6.83,6.92,2.28,11.47-6.84,6.84-3.8,9.88,1.52,56.2,1.52,56.2l16,71.39h-20.1l-25.47-71.39-6.84-59.24-22.1,57,2.44,74.28-21-.61-8.69-79s12.91-75.13,10.63-77.06,0-5.81,0-5.81l6.08-28.77Z" transform="translate(-56.02 -154.07)"/><path class="cls-8" d="M660.43,386.52s4.14-16.28-14.9-20.95-73.45-10.66-73.45-10.66l-27.5-29.18-9.32,13.53,30.83,38.31,73,15Z" transform="translate(-56.02 -154.07)"/><path class="cls-1" d="M539.79,338.26a12.49,12.49,0,0,0,2-3.66l4-9.69-1-.05A10.23,10.23,0,0,0,532.75,333a7.39,7.39,0,0,0-.15,1.15,6.65,6.65,0,0,0,.64,3.62,3.93,3.93,0,0,0,2.89,2.12A4.33,4.33,0,0,0,539.79,338.26Z" transform="translate(-56.02 -154.07)"/><path class="cls-1" d="M623.39,489.15l-2.28,16.52s4.56,4.89,6.83,4.28,10.64-4.18,10.64-4.18,9.87,5.4,15.19,6,33.41-3.06,34.17-4.89,9.59-9,9.59-9l-3.51-21Z" transform="translate(-56.02 -154.07)"/><path class="cls-8" d="M697.38,431.37s-1.93,15.93-.41,17.39-1.52,10.69-4.55,16.76,2.27,6.84,2.27,11.39S697,498.18,697,498.18s-23.54,1.52-27.34-2.28-9.87-.76-18.23,7.6-26.49,1.52-30.29-2.28,2.95-17.47,5.23-20.12-2.19.42-4.47-8,2.19-7.6,6-11.39,0-10.64-3-17.47-.76-57.72-.76-69.87,16.71-13.67,16.71-13.67l6.62-8.32,4.86-6.11,9.52-.38H662l9.21-.37,4.48,5.21,9.87,11.49L697,364.51c9.12,3,6.84,22,6.84,22Z" transform="translate(-56.02 -154.07)"/><circle class="cls-5" cx="605.28" cy="169.02" r="19.52"/><path class="cls-6" d="M683.94,316.52c-5.37-3.29-4.68-11.9-9.86-14.91a18.42,18.42,0,0,0-17-.71c-3.64-1.56-8-.32-10.93,2.5s-4.49,7-5,11.14a41.55,41.55,0,0,0,.89,12.53l.87-4.95,15.39-3.37-4.09,3.68a28,28,0,0,0,20.44-3.2c6.7,3,5.48,9.75-.4,18.7C676.55,341.73,690.06,320.27,683.94,316.52Z" transform="translate(-56.02 -154.07)"/><path class="cls-1" d="M675.71,350.74l-.14.09a10.28,10.28,0,0,1-5.32,1.45,9.42,9.42,0,0,1-6.78-2.13c-1-.94-5,1.05-7.55,2.15a11.49,11.49,0,0,1-8.53.1l4.86-6.11,8-1.78h2l9,1Z" transform="translate(-56.02 -154.07)"/><path class="cls-9" d="M806.79,709.63l-271.75.3a1.19,1.19,0,0,1-1.2-1.18,1.2,1.2,0,0,1,1.19-1.2h0l271.75-.3a1.19,1.19,0,0,1,1.19,1.19A1.21,1.21,0,0,1,806.79,709.63Z" transform="translate(-56.02 -154.07)"/><polygon class="cls-10" points="425.38 155.69 423.38 155.69 423.38 12.65 502.04 12.65 502.04 14.65 425.38 14.65 425.38 155.69"/><path class="cls-11" d="M619.24,154.07h-53a13,13,0,0,0,0,26h53a13,13,0,0,0,0-26Z" transform="translate(-56.02 -154.07)"/><circle class="cls-11" cx="423.22" cy="156.83" r="11.95"/><path class="cls-3" d="M335.3,355.79l52.4-12.13,15.05-3.48c1.88-.44,1.1-3.33-.79-2.9l-52.4,12.13-15.05,3.48c-1.88.44-1.1,3.33.79,2.9Z" transform="translate(-56.02 -154.07)"/><path class="cls-3" d="M389.41,324.21l28.06,12.9a9.22,9.22,0,0,1,2.65,1.44c.78.76.21,1.49-.42,2.15a64,64,0,0,1-6,4.93l-12,9.71c-1.5,1.22.61,3.35,2.1,2.14L414.29,349l5.21-4.23c1.47-1.2,3.27-2.42,3.86-4.33,1.24-4-3.67-5.61-6.4-6.87L404.74,328l-13.8-6.35c-1.74-.8-3.28,1.78-1.53,2.59Z" transform="translate(-56.02 -154.07)"/><path class="cls-1" d="M776.57,422.45c-5-3.39-11.07-4.65-17-5.08a184.85,184.85,0,0,0-20.25,0q-10.51.42-21,1.52t-20.81,2.9a153.34,153.34,0,0,0-18.34,4,49.12,49.12,0,0,0-15.85,7.66A28,28,0,0,0,654,445.81a22.9,22.9,0,0,0-.9,14.46,17.31,17.31,0,0,0,3.41,6.33,23.91,23.91,0,0,0,6.34,5c5,2.83,10.58,4.54,15.06,8.16a21.18,21.18,0,0,1,3.22,3.2,5.85,5.85,0,0,0,2.58,2,5.28,5.28,0,0,0,5.67-1.46,18.89,18.89,0,0,0,2.23-4L694,475a6.16,6.16,0,0,1,.59-1.14c.18-.21-.14,0-.08-.05s.1,0,.14-.06a4,4,0,0,1,.61-.23q3.29-1.25,6.59-2.43c8.15-2.9,16.4-5.58,24.78-7.74a117,117,0,0,1,13.09-2.74c5.72-.82,11.52-.72,17.26-1.28,6.19-.6,12.56-1.85,17.87-5.26a23.16,23.16,0,0,0,9.6-11.49,16.05,16.05,0,0,0,.8-7.11C784.56,430.05,781,425.46,776.57,422.45Z" transform="translate(-56.02 -154.07)"/><path class="cls-2" d="M766.34,425.5c-4.52-3.06-10-4.2-15.37-4.58a164.29,164.29,0,0,0-18.3,0q-9.49.38-19,1.37t-18.81,2.62a137.71,137.71,0,0,0-16.56,3.63A44.25,44.25,0,0,0,664,435.48a25.4,25.4,0,0,0-8.42,11.13,20.76,20.76,0,0,0-.81,13.07,15.51,15.51,0,0,0,3.08,5.72,21.41,21.41,0,0,0,5.74,4.54c4.48,2.56,9.55,4.1,13.61,7.37a19.81,19.81,0,0,1,2.9,2.89,5.36,5.36,0,0,0,2.34,1.84,4.78,4.78,0,0,0,5.12-1.32,17.1,17.1,0,0,0,2-3.59l2.14-4.12a5.06,5.06,0,0,1,.54-1c.16-.19-.13,0-.08-.05s.1,0,.13-.05a3.66,3.66,0,0,1,.55-.21q3-1.12,6-2.19c7.37-2.62,14.82-5,22.39-7A109,109,0,0,1,733,460c5.17-.73,10.41-.65,15.6-1.15,5.59-.54,11.35-1.67,16.14-4.75a21,21,0,0,0,8.68-10.39,14.48,14.48,0,0,0,.72-6.43C773.56,432.37,770.35,428.23,766.34,425.5Z" transform="translate(-56.02 -154.07)"/><path class="cls-1" d="M756.88,431l-73.6,13.58a1.63,1.63,0,0,1-.62-3.2h0l73.61-13.57a1.63,1.63,0,0,1,.59,3.2Z" transform="translate(-56.02 -154.07)"/><path class="cls-1" d="M758.69,440.86l-73.6,13.58a1.63,1.63,0,1,1-.61-3.2h0l73.6-13.57a1.63,1.63,0,1,1,.59,3.2Z" transform="translate(-56.02 -154.07)"/><path class="cls-1" d="M695.48,462.68l-8.58,1.59a1.63,1.63,0,0,1-.59-3.21l8.58-1.58a1.63,1.63,0,0,1,.59,3.2Z" transform="translate(-56.02 -154.07)"/><circle class="cls-12" cx="688.01" cy="496.74" r="6.92" transform="translate(-134.71 -21.04) rotate(-10.45)"/><path class="cls-1" d="M308.37,352.69H245.5a11,11,0,0,1-11-11V300.25a11,11,0,0,1,11-11h62.87a11,11,0,0,1,11,11v41.43A11,11,0,0,1,308.37,352.69Z" transform="translate(-56.02 -154.07)"/><path class="cls-2" d="M301.46,350.46H246.74a9.61,9.61,0,0,1-9.58-9.58V304.82a9.59,9.59,0,0,1,9.58-9.58h54.72a9.59,9.59,0,0,1,9.58,9.58v36.06A9.6,9.6,0,0,1,301.46,350.46Z" transform="translate(-56.02 -154.07)"/><path class="cls-1" d="M317.22,390H236.55a1.89,1.89,0,0,1,0-3.77h80.67a1.89,1.89,0,0,1,0,3.77Z" transform="translate(-56.02 -154.07)"/><path class="cls-1" d="M317.22,379.26H236.55a1.88,1.88,0,0,1,0-3.76h80.67a1.88,1.88,0,0,1,0,3.76Z" transform="translate(-56.02 -154.07)"/><path class="cls-1" d="M317.22,400.77H236.55a1.88,1.88,0,0,1,0-3.76h80.67a1.88,1.88,0,0,1,0,3.76Z" transform="translate(-56.02 -154.07)"/><path class="cls-1" d="M317.22,411.53H236.55a1.89,1.89,0,0,1,0-3.77h80.67a1.89,1.89,0,0,1,0,3.77Z" transform="translate(-56.02 -154.07)"/><path class="cls-1" d="M317.22,422.28H236.55a1.88,1.88,0,0,1,0-3.76h80.67a1.88,1.88,0,0,1,0,3.76Z" transform="translate(-56.02 -154.07)"/><path class="cls-1" d="M317.22,433H236.55a1.89,1.89,0,0,1,0-3.77h80.67a1.89,1.89,0,0,1,0,3.77Z" transform="translate(-56.02 -154.07)"/><polygon class="cls-10" points="216.83 254.31 218.83 254.31 218.83 331.35 74.17 331.35 74.17 329.35 216.83 329.35 216.83 254.31"/><path class="cls-11" d="M69,498.07h53a13,13,0,1,0,0-26H69a13,13,0,1,0,0,26Z" transform="translate(-56.02 -154.07)"/><circle class="cls-11" cx="219.22" cy="248.17" r="11.95"/><path class="cls-3" d="M337,405.55c17.54,3.73,13.08,4.46,30.62,8.18l15.1,3.21c1.89.4,2.41-2.55.52-2.95-17.54-3.73-13.08-4.46-30.62-8.18l-15.1-3.21c-1.89-.41-2.41,2.55-.52,2.95Z" transform="translate(-56.02 -154.07)"/><path class="cls-3" d="M377.39,396.83l20,23.56a9.53,9.53,0,0,1,1.8,2.43c.38,1-.44,1.43-1.29,1.77a66.56,66.56,0,0,1-7.5,1.94l-14.94,3.74c-1.88.47-.86,3.3,1,2.83l13-3.26,6.51-1.63c1.84-.47,4-.82,5.33-2.3,2.83-3.11-.95-6.63-2.89-8.92l-8.7-10.26-9.81-11.6c-1.24-1.46-3.73.23-2.48,1.7Z" transform="translate(-56.02 -154.07)"/><circle class="cls-1" cx="384.65" cy="317.69" r="27.78"/><circle class="cls-2" cx="381.94" cy="320.81" r="21.12"/><path class="cls-1" d="M434.18,489.34a3.08,3.08,0,0,1-2.47-1.24L424.13,478a3.09,3.09,0,1,1,4.94-3.71h0l5,6.61,12.74-19.1a3.09,3.09,0,1,1,5.14,3.43h0L436.75,488a3.07,3.07,0,0,1-2.48,1.38Z" transform="translate(-56.02 -154.07)"/><path class="cls-4" d="M700.08,500.38a7.12,7.12,0,0,0,2.52-9.72,8.21,8.21,0,0,0-.73-1l22.3-39-13.08.71-19.66,37.77a7.14,7.14,0,0,0,8.65,11.23Z" transform="translate(-56.02 -154.07)"/><path class="cls-8" d="M675,363.75s23.63-7.59,29.7,10.64S731.15,442,731.15,442l-21.94,44.81-9.87-10.63L709.89,445l-30.38-45.57Z" transform="translate(-56.02 -154.07)"/><path class="cls-1" d="M710,482.21a12.78,12.78,0,0,0-2.67-3.19l-7.54-7.26-.42.94a10.23,10.23,0,0,0,3.16,14.12,10.91,10.91,0,0,0,1,.56,6.73,6.73,0,0,0,3.6.75,4,4,0,0,0,3-1.9A4.36,4.36,0,0,0,710,482.21Z" transform="translate(-56.02 -154.07)"/><polygon class="cls-10" points="384.41 355.07 382.41 355.07 382.41 432.11 450.07 432.11 450.07 430.11 384.41 430.11 384.41 355.07"/><path class="cls-11" d="M580.27,585.83a13,13,0,0,0-13-13h-53a13,13,0,0,0,0,26h53A13,13,0,0,0,580.27,585.83Z" transform="translate(-56.02 -154.07)"/><circle class="cls-11" cx="382.02" cy="348.93" r="11.95"/></svg>